<?xml version="1.0" encoding="UTF-8" standalone="no"?><svg xmlns="http://www.w3.org/2000/svg" xmlns:xlink="http://www.w3.org/1999/xlink" clip-rule="evenodd" stroke-miterlimit="10" viewBox="0 0 1024 768"><desc>SVG generated by Keynote</desc><defs></defs><g transform="matrix(1.00, 0.00, -0.00, -1.00, 0.0, 768.0)"><path d="M 0.0 768.0 L 1024.0 768.0 L 1024.0 0.0 L 0.0 0.0 Z M 0.0 768.0 " fill="#FEFFFF"></path><text xml:space="preserve" font-family="Menlo-Bold,Menlo" font-weight="bold" font-size="75.2" fill="#000000" transform="matrix(1.00, 0.00, -0.00, -1.00, 81.9, 621.7)">l</text><text xml:space="preserve" font-family="Menlo-Bold,Menlo" font-weight="bold" font-size="75.2" fill="#000000" transform="matrix(1.00, 0.00, -0.00, -1.00, 127.2, 621.7)">o</text><text xml:space="preserve" font-family="Menlo-Bold,Menlo" font-weight="bold" font-size="75.2" fill="#000000" transform="matrix(1.00, 0.00, -0.00, -1.00, 172.5, 621.7)">c</text><text xml:space="preserve" font-family="Menlo-Bold,Menlo" font-weight="bold" font-size="75.2" fill="#000000" transform="matrix(1.00, 0.00, -0.00, -1.00, 217.7, 621.7)">a</text><text xml:space="preserve" font-family="Menlo-Bold,Menlo" font-weight="bold" font-size="75.2" fill="#000000" transform="matrix(1.00, 0.00, -0.00, -1.00, 263.0, 621.7)">m</text><text xml:space="preserve" font-family="Menlo-Bold,Menlo" font-weight="bold" font-size="75.2" fill="#000000" transform="matrix(1.00, 0.00, -0.00, -1.00, 308.3, 621.7)">o</text><text xml:space="preserve" font-family="Menlo-Bold,Menlo" font-weight="bold" font-size="75.2" fill="#000000" transform="matrix(1.00, 0.00, -0.00, -1.00, 353.6, 621.7)">t</text><text xml:space="preserve" font-family="Menlo-Bold,Menlo" font-weight="bold" font-size="75.2" fill="#000000" transform="matrix(1.00, 0.00, -0.00, -1.00, 398.9, 621.7)">i</text><text xml:space="preserve" font-family="Menlo-Bold,Menlo" font-weight="bold" font-size="75.2" fill="#000000" transform="matrix(1.00, 0.00, -0.00, -1.00, 444.1, 621.7)">o</text><text xml:space="preserve" font-family="Menlo-Bold,Menlo" font-weight="bold" font-size="75.2" fill="#000000" transform="matrix(1.00, 0.00, -0.00, -1.00, 489.4, 621.7)">n</text><text xml:space="preserve" font-family="Menlo-Bold,Menlo" font-weight="bold" font-size="75.2" fill="#000000" transform="matrix(1.00, 0.00, -0.00, -1.00, 534.7, 621.7)"> </text><text xml:space="preserve" font-family="Menlo-Bold,Menlo" font-weight="bold" font-size="75.2" fill="#000000" transform="matrix(1.00, 0.00, -0.00, -1.00, 580.0, 621.7)">g</text><text xml:space="preserve" font-family="Menlo-Bold,Menlo" font-weight="bold" font-size="75.2" fill="#000000" transform="matrix(1.00, 0.00, -0.00, -1.00, 625.3, 621.7)">e</text><text xml:space="preserve" font-family="Menlo-Bold,Menlo" font-weight="bold" font-size="75.2" fill="#000000" transform="matrix(1.00, 0.00, -0.00, -1.00, 670.6, 621.7)">n</text><text xml:space="preserve" font-family="Menlo-Bold,Menlo" font-weight="bold" font-size="75.2" fill="#000000" transform="matrix(1.00, 0.00, -0.00, -1.00, 715.8, 621.7)">e</text><text xml:space="preserve" font-family="Menlo-Bold,Menlo" font-weight="bold" font-size="75.2" fill="#000000" transform="matrix(1.00, 0.00, -0.00, -1.00, 761.1, 621.7)">r</text><text xml:space="preserve" font-family="Menlo-Bold,Menlo" font-weight="bold" font-size="75.2" fill="#000000" transform="matrix(1.00, 0.00, -0.00, -1.00, 806.4, 621.7)">a</text><text xml:space="preserve" font-family="Menlo-Bold,Menlo" font-weight="bold" font-size="75.2" fill="#000000" transform="matrix(1.00, 0.00, -0.00, -1.00, 851.7, 621.7)">t</text><text xml:space="preserve" font-family="Menlo-Bold,Menlo" font-weight="bold" font-size="75.2" fill="#000000" transform="matrix(1.00, 0.00, -0.00, -1.00, 897.0, 621.7)">e</text><path d="M 0.0 0.0 L 397.0 0.0 L 397.0 495.0 L 0.0 495.0 Z M 0.0 0.0 " fill="none" stroke="#85878C" stroke-width="2.00" transform="matrix(1.00, 0.00, 0.00, -1.00, 53.0, 559.0)"></path><g><clipPath id="clip0x7fbfd9b027b0"><path d="M 52.0 65.0 L 451.3 65.0 L 451.3 558.0 L 52.0 558.0 Z M 52.0 65.0 "></path></clipPath><g clip-path="url(#clip0x7fbfd9b027b0)"><text xml:space="preserve" font-family="Helvetica-Light,Helvetica" font-size="24.0" fill="#000000" transform="matrix(1.00, 0.00, -0.00, -1.00, 155.1, 331.5)">“</text><text xml:space="preserve" font-family="Helvetica-Light,Helvetica" font-size="24.0" fill="#000000" transform="matrix(1.00, 0.00, -0.00, -1.00, 164.4, 331.5)">s</text><text xml:space="preserve" font-family="Helvetica-Light,Helvetica" font-size="24.0" fill="#000000" transform="matrix(1.00, 0.00, -0.00, -1.00, 176.4, 331.5)">t</text><text xml:space="preserve" font-family="Helvetica-Light,Helvetica" font-size="24.0" fill="#000000" transform="matrix(1.00, 0.00, -0.00, -1.00, 183.1, 331.5)">r</text><text xml:space="preserve" font-family="Helvetica-Light,Helvetica" font-size="24.0" fill="#000000" transform="matrix(1.00, 0.00, -0.00, -1.00, 191.1, 331.5)">i</text><text xml:space="preserve" font-family="Helvetica-Light,Helvetica" font-size="24.0" fill="#000000" transform="matrix(1.00, 0.00, -0.00, -1.00, 196.4, 331.5)">n</text><text xml:space="preserve" font-family="Helvetica-Light,Helvetica" font-size="24.0" fill="#000000" transform="matrix(1.00, 0.00, -0.00, -1.00, 209.7, 331.5)">g</text><text xml:space="preserve" font-family="Helvetica-Light,Helvetica" font-size="24.0" fill="#000000" transform="matrix(1.00, 0.00, -0.00, -1.00, 224.4, 331.5)">”</text><text xml:space="preserve" font-family="Helvetica-Light,Helvetica" font-size="24.0" fill="#000000" transform="matrix(1.00, 0.00, -0.00, -1.00, 233.7, 331.5)"> </text><text xml:space="preserve" font-family="Helvetica-Light,Helvetica" font-size="24.0" fill="#000000" transform="matrix(1.00, 0.00, -0.00, -1.00, 240.4, 331.5)">=</text><text xml:space="preserve" font-family="Helvetica-Light,Helvetica" font-size="24.0" fill="#000000" transform="matrix(1.00, 0.00, -0.00, -1.00, 256.2, 331.5)"> </text><text xml:space="preserve" font-family="Helvetica-Light,Helvetica" font-size="24.0" fill="#000000" transform="matrix(1.00, 0.00, -0.00, -1.00, 262.9, 331.5)">“</text><text xml:space="preserve" font-family="Helvetica-Light,Helvetica" font-size="24.0" fill="#000000" transform="matrix(1.00, 0.00, -0.00, -1.00, 272.3, 331.5)">s</text><text xml:space="preserve" font-family="Helvetica-Light,Helvetica" font-size="24.0" fill="#000000" transform="matrix(1.00, 0.00, -0.00, -1.00, 284.3, 331.5)">t</text><text xml:space="preserve" font-family="Helvetica-Light,Helvetica" font-size="24.0" fill="#000000" transform="matrix(1.00, 0.00, -0.00, -1.00, 290.9, 331.5)">r</text><text xml:space="preserve" font-family="Helvetica-Light,Helvetica" font-size="24.0" fill="#000000" transform="matrix(1.00, 0.00, -0.00, -1.00, 298.9, 331.5)">i</text><text xml:space="preserve" font-family="Helvetica-Light,Helvetica" font-size="24.0" fill="#000000" transform="matrix(1.00, 0.00, -0.00, -1.00, 304.2, 331.5)">n</text><text xml:space="preserve" font-family="Helvetica-Light,Helvetica" font-size="24.0" fill="#000000" transform="matrix(1.00, 0.00, -0.00, -1.00, 317.6, 331.5)">g</text><text xml:space="preserve" font-family="Helvetica-Light,Helvetica" font-size="24.0" fill="#000000" transform="matrix(1.00, 0.00, -0.00, -1.00, 332.3, 331.5)">”</text><text xml:space="preserve" font-family="Helvetica-Light,Helvetica" font-size="24.0" fill="#000000" transform="matrix(1.00, 0.00, -0.00, -1.00, 341.6, 331.5)">;</text><text xml:space="preserve" font-family="Helvetica-Light,Helvetica" font-size="24.0" fill="#000000" transform="matrix(1.00, 0.00, -0.00, -1.00, 348.3, 331.5)"> </text><text xml:space="preserve" font-family="Helvetica-Light,Helvetica" font-size="24.0" fill="#000000" transform="matrix(1.00, 0.00, -0.00, -1.00, 67.0, 302.5)">“</text><text xml:space="preserve" font-family="Helvetica-Light,Helvetica" font-size="24.0" fill="#000000" transform="matrix(1.00, 0.00, -0.00, -1.00, 76.3, 302.5)">a</text><text xml:space="preserve" font-family="Helvetica-Light,Helvetica" font-size="24.0" fill="#000000" transform="matrix(1.00, 0.00, -0.00, -1.00, 89.7, 302.5)">n</text><text xml:space="preserve" font-family="Helvetica-Light,Helvetica" font-size="24.0" fill="#000000" transform="matrix(1.00, 0.00, -0.00, -1.00, 103.0, 302.5)">o</text><text xml:space="preserve" font-family="Helvetica-Light,Helvetica" font-size="24.0" fill="#000000" transform="matrix(1.00, 0.00, -0.00, -1.00, 116.4, 302.5)">t</text><text xml:space="preserve" font-family="Helvetica-Light,Helvetica" font-size="24.0" fill="#000000" transform="matrix(1.00, 0.00, -0.00, -1.00, 123.0, 302.5)">h</text><text xml:space="preserve" font-family="Helvetica-Light,Helvetica" font-size="24.0" fill="#000000" transform="matrix(1.00, 0.00, -0.00, -1.00, 136.4, 302.5)">e</text><text xml:space="preserve" font-family="Helvetica-Light,Helvetica" font-size="24.0" fill="#000000" transform="matrix(1.00, 0.00, -0.00, -1.00, 149.7, 302.5)">r</text><text xml:space="preserve" font-family="Helvetica-Light,Helvetica" font-size="24.0" fill="#000000" transform="matrix(1.00, 0.00, -0.00, -1.00, 157.7, 302.5)"> </text><text xml:space="preserve" font-family="Helvetica-Light,Helvetica" font-size="24.0" fill="#000000" transform="matrix(1.00, 0.00, -0.00, -1.00, 164.4, 302.5)">s</text><text xml:space="preserve" font-family="Helvetica-Light,Helvetica" font-size="24.0" fill="#000000" transform="matrix(1.00, 0.00, -0.00, -1.00, 176.4, 302.5)">t</text><text xml:space="preserve" font-family="Helvetica-Light,Helvetica" font-size="24.0" fill="#000000" transform="matrix(1.00, 0.00, -0.00, -1.00, 183.1, 302.5)">r</text><text xml:space="preserve" font-family="Helvetica-Light,Helvetica" font-size="24.0" fill="#000000" transform="matrix(1.00, 0.00, -0.00, -1.00, 191.1, 302.5)">i</text><text xml:space="preserve" font-family="Helvetica-Light,Helvetica" font-size="24.0" fill="#000000" transform="matrix(1.00, 0.00, -0.00, -1.00, 196.4, 302.5)">n</text><text xml:space="preserve" font-family="Helvetica-Light,Helvetica" font-size="24.0" fill="#000000" transform="matrix(1.00, 0.00, -0.00, -1.00, 209.7, 302.5)">g</text><text xml:space="preserve" font-family="Helvetica-Light,Helvetica" font-size="24.0" fill="#000000" transform="matrix(1.00, 0.00, -0.00, -1.00, 224.4, 302.5)">”</text><text xml:space="preserve" font-family="Helvetica-Light,Helvetica" font-size="24.0" fill="#000000" transform="matrix(1.00, 0.00, -0.00, -1.00, 233.7, 302.5)"> </text><text xml:space="preserve" font-family="Helvetica-Light,Helvetica" font-size="24.0" fill="#000000" transform="matrix(1.00, 0.00, -0.00, -1.00, 240.4, 302.5)">=</text><text xml:space="preserve" font-family="Helvetica-Light,Helvetica" font-size="24.0" fill="#000000" transform="matrix(1.00, 0.00, -0.00, -1.00, 256.2, 302.5)"> </text><text xml:space="preserve" font-family="Helvetica-Light,Helvetica" font-size="24.0" fill="#000000" transform="matrix(1.00, 0.00, -0.00, -1.00, 262.9, 302.5)">“</text><text xml:space="preserve" font-family="Helvetica-Light,Helvetica" font-size="24.0" fill="#000000" transform="matrix(1.00, 0.00, -0.00, -1.00, 272.3, 302.5)">a</text><text xml:space="preserve" font-family="Helvetica-Light,Helvetica" font-size="24.0" fill="#000000" transform="matrix(1.00, 0.00, -0.00, -1.00, 285.6, 302.5)">n</text><text xml:space="preserve" font-family="Helvetica-Light,Helvetica" font-size="24.0" fill="#000000" transform="matrix(1.00, 0.00, -0.00, -1.00, 298.9, 302.5)">o</text><text xml:space="preserve" font-family="Helvetica-Light,Helvetica" font-size="24.0" fill="#000000" transform="matrix(1.00, 0.00, -0.00, -1.00, 312.3, 302.5)">t</text><text xml:space="preserve" font-family="Helvetica-Light,Helvetica" font-size="24.0" fill="#000000" transform="matrix(1.00, 0.00, -0.00, -1.00, 319.0, 302.5)">h</text><text xml:space="preserve" font-family="Helvetica-Light,Helvetica" font-size="24.0" fill="#000000" transform="matrix(1.00, 0.00, -0.00, -1.00, 332.3, 302.5)">e</text><text xml:space="preserve" font-family="Helvetica-Light,Helvetica" font-size="24.0" fill="#000000" transform="matrix(1.00, 0.00, -0.00, -1.00, 345.6, 302.5)">r</text><text xml:space="preserve" font-family="Helvetica-Light,Helvetica" font-size="24.0" fill="#000000" transform="matrix(1.00, 0.00, -0.00, -1.00, 353.6, 302.5)"> </text><text xml:space="preserve" font-family="Helvetica-Light,Helvetica" font-size="24.0" fill="#000000" transform="matrix(1.00, 0.00, -0.00, -1.00, 360.3, 302.5)">s</text><text xml:space="preserve" font-family="Helvetica-Light,Helvetica" font-size="24.0" fill="#000000" transform="matrix(1.00, 0.00, -0.00, -1.00, 372.3, 302.5)">t</text><text xml:space="preserve" font-family="Helvetica-Light,Helvetica" font-size="24.0" fill="#000000" transform="matrix(1.00, 0.00, -0.00, -1.00, 379.0, 302.5)">r</text><text xml:space="preserve" font-family="Helvetica-Light,Helvetica" font-size="24.0" fill="#000000" transform="matrix(1.00, 0.00, -0.00, -1.00, 387.0, 302.5)">i</text><text xml:space="preserve" font-family="Helvetica-Light,Helvetica" font-size="24.0" fill="#000000" transform="matrix(1.00, 0.00, -0.00, -1.00, 392.3, 302.5)">n</text><text xml:space="preserve" font-family="Helvetica-Light,Helvetica" font-size="24.0" fill="#000000" transform="matrix(1.00, 0.00, -0.00, -1.00, 405.6, 302.5)">g</text><text xml:space="preserve" font-family="Helvetica-Light,Helvetica" font-size="24.0" fill="#000000" transform="matrix(1.00, 0.00, -0.00, -1.00, 420.3, 302.5)">”</text><text xml:space="preserve" font-family="Helvetica-Light,Helvetica" font-size="24.0" fill="#000000" transform="matrix(1.00, 0.00, -0.00, -1.00, 429.6, 302.5)">;</text><text xml:space="preserve" font-family="Helvetica-Light,Helvetica" font-size="24.0" fill="#000000" transform="matrix(1.00, 0.00, -0.00, -1.00, 436.3, 302.5)"> </text><text xml:space="preserve" font-family="Helvetica-Light,Helvetica" font-size="24.0" fill="#000000" transform="matrix(1.00, 0.00, -0.00, -1.00, 100.8, 273.5)">“</text><text xml:space="preserve" font-family="Helvetica-Light,Helvetica" font-size="24.0" fill="#000000" transform="matrix(1.00, 0.00, -0.00, -1.00, 110.2, 273.5)">t</text><text xml:space="preserve" font-family="Helvetica-Light,Helvetica" font-size="24.0" fill="#000000" transform="matrix(1.00, 0.00, -0.00, -1.00, 116.8, 273.5)">h</text><text xml:space="preserve" font-family="Helvetica-Light,Helvetica" font-size="24.0" fill="#000000" transform="matrix(1.00, 0.00, -0.00, -1.00, 130.2, 273.5)">i</text><text xml:space="preserve" font-family="Helvetica-Light,Helvetica" font-size="24.0" fill="#000000" transform="matrix(1.00, 0.00, -0.00, -1.00, 135.5, 273.5)">r</text><text xml:space="preserve" font-family="Helvetica-Light,Helvetica" font-size="24.0" fill="#000000" transform="matrix(1.00, 0.00, -0.00, -1.00, 143.1, 273.5)">d</text><text xml:space="preserve" font-family="Helvetica-Light,Helvetica" font-size="24.0" fill="#000000" transform="matrix(1.00, 0.00, -0.00, -1.00, 157.7, 273.5)"> </text><text xml:space="preserve" font-family="Helvetica-Light,Helvetica" font-size="24.0" fill="#000000" transform="matrix(1.00, 0.00, -0.00, -1.00, 164.4, 273.5)">s</text><text xml:space="preserve" font-family="Helvetica-Light,Helvetica" font-size="24.0" fill="#000000" transform="matrix(1.00, 0.00, -0.00, -1.00, 176.4, 273.5)">t</text><text xml:space="preserve" font-family="Helvetica-Light,Helvetica" font-size="24.0" fill="#000000" transform="matrix(1.00, 0.00, -0.00, -1.00, 183.1, 273.5)">r</text><text xml:space="preserve" font-family="Helvetica-Light,Helvetica" font-size="24.0" fill="#000000" transform="matrix(1.00, 0.00, -0.00, -1.00, 191.1, 273.5)">i</text><text xml:space="preserve" font-family="Helvetica-Light,Helvetica" font-size="24.0" fill="#000000" transform="matrix(1.00, 0.00, -0.00, -1.00, 196.4, 273.5)">n</text><text xml:space="preserve" font-family="Helvetica-Light,Helvetica" font-size="24.0" fill="#000000" transform="matrix(1.00, 0.00, -0.00, -1.00, 209.7, 273.5)">g</text><text xml:space="preserve" font-family="Helvetica-Light,Helvetica" font-size="24.0" fill="#000000" transform="matrix(1.00, 0.00, -0.00, -1.00, 224.4, 273.5)">”</text><text xml:space="preserve" font-family="Helvetica-Light,Helvetica" font-size="24.0" fill="#000000" transform="matrix(1.00, 0.00, -0.00, -1.00, 233.7, 273.5)"> </text><text xml:space="preserve" font-family="Helvetica-Light,Helvetica" font-size="24.0" fill="#000000" transform="matrix(1.00, 0.00, -0.00, -1.00, 240.4, 273.5)">=</text><text xml:space="preserve" font-family="Helvetica-Light,Helvetica" font-size="24.0" fill="#000000" transform="matrix(1.00, 0.00, -0.00, -1.00, 256.2, 273.5)"> </text><text xml:space="preserve" font-family="Helvetica-Light,Helvetica" font-size="24.0" fill="#000000" transform="matrix(1.00, 0.00, -0.00, -1.00, 262.9, 273.5)">“</text><text xml:space="preserve" font-family="Helvetica-Light,Helvetica" font-size="24.0" fill="#000000" transform="matrix(1.00, 0.00, -0.00, -1.00, 272.3, 273.5)">t</text><text xml:space="preserve" font-family="Helvetica-Light,Helvetica" font-size="24.0" fill="#000000" transform="matrix(1.00, 0.00, -0.00, -1.00, 278.9, 273.5)">h</text><text xml:space="preserve" font-family="Helvetica-Light,Helvetica" font-size="24.0" fill="#000000" transform="matrix(1.00, 0.00, -0.00, -1.00, 292.3, 273.5)">i</text><text xml:space="preserve" font-family="Helvetica-Light,Helvetica" font-size="24.0" fill="#000000" transform="matrix(1.00, 0.00, -0.00, -1.00, 297.6, 273.5)">r</text><text xml:space="preserve" font-family="Helvetica-Light,Helvetica" font-size="24.0" fill="#000000" transform="matrix(1.00, 0.00, -0.00, -1.00, 305.2, 273.5)">d</text><text xml:space="preserve" font-family="Helvetica-Light,Helvetica" font-size="24.0" fill="#000000" transform="matrix(1.00, 0.00, -0.00, -1.00, 319.8, 273.5)"> </text><text xml:space="preserve" font-family="Helvetica-Light,Helvetica" font-size="24.0" fill="#000000" transform="matrix(1.00, 0.00, -0.00, -1.00, 326.5, 273.5)">s</text><text xml:space="preserve" font-family="Helvetica-Light,Helvetica" font-size="24.0" fill="#000000" transform="matrix(1.00, 0.00, -0.00, -1.00, 338.5, 273.5)">t</text><text xml:space="preserve" font-family="Helvetica-Light,Helvetica" font-size="24.0" fill="#000000" transform="matrix(1.00, 0.00, -0.00, -1.00, 345.2, 273.5)">r</text><text xml:space="preserve" font-family="Helvetica-Light,Helvetica" font-size="24.0" fill="#000000" transform="matrix(1.00, 0.00, -0.00, -1.00, 353.2, 273.5)">i</text><text xml:space="preserve" font-family="Helvetica-Light,Helvetica" font-size="24.0" fill="#000000" transform="matrix(1.00, 0.00, -0.00, -1.00, 358.5, 273.5)">n</text><text xml:space="preserve" font-family="Helvetica-Light,Helvetica" font-size="24.0" fill="#000000" transform="matrix(1.00, 0.00, -0.00, -1.00, 371.8, 273.5)">g</text><text xml:space="preserve" font-family="Helvetica-Light,Helvetica" font-size="24.0" fill="#000000" transform="matrix(1.00, 0.00, -0.00, -1.00, 386.5, 273.5)">”</text><text xml:space="preserve" font-family="Helvetica-Light,Helvetica" font-size="24.0" fill="#000000" transform="matrix(1.00, 0.00, -0.00, -1.00, 395.8, 273.5)">;</text></g></g><text xml:space="preserve" font-family="Helvetica-LightOblique,Helvetica" font-style="italic" font-size="36.0" fill="#000000" transform="matrix(1.00, 0.00, -0.00, -1.00, 102.6, 528.3)">r</text><text xml:space="preserve" font-family="Helvetica-LightOblique,Helvetica" font-style="italic" font-size="36.0" fill="#000000" transform="matrix(1.00, 0.00, -0.00, -1.00, 113.9, 528.3)">e</text><text xml:space="preserve" font-family="Helvetica-LightOblique,Helvetica" font-style="italic" font-size="36.0" fill="#000000" transform="matrix(1.00, 0.00, -0.00, -1.00, 133.9, 528.3)">s</text><text xml:space="preserve" font-family="Helvetica-LightOblique,Helvetica" font-style="italic" font-size="36.0" fill="#000000" transform="matrix(1.00, 0.00, -0.00, -1.00, 151.9, 528.3)">o</text><text xml:space="preserve" font-family="Helvetica-LightOblique,Helvetica" font-style="italic" font-size="36.0" fill="#000000" transform="matrix(1.00, 0.00, -0.00, -1.00, 172.0, 528.3)">u</text><text xml:space="preserve" font-family="Helvetica-LightOblique,Helvetica" font-style="italic" font-size="36.0" fill="#000000" transform="matrix(1.00, 0.00, -0.00, -1.00, 192.0, 528.3)">r</text><text xml:space="preserve" font-family="Helvetica-LightOblique,Helvetica" font-style="italic" font-size="36.0" fill="#000000" transform="matrix(1.00, 0.00, -0.00, -1.00, 203.3, 528.3)">c</text><text xml:space="preserve" font-family="Helvetica-LightOblique,Helvetica" font-style="italic" font-size="36.0" fill="#000000" transform="matrix(1.00, 0.00, -0.00, -1.00, 223.3, 528.3)">e</text><text xml:space="preserve" font-family="Helvetica-LightOblique,Helvetica" font-style="italic" font-size="36.0" fill="#000000" transform="matrix(1.00, 0.00, -0.00, -1.00, 243.3, 528.3)">s</text><text xml:space="preserve" font-family="Helvetica-LightOblique,Helvetica" font-style="italic" font-size="36.0" fill="#000000" transform="matrix(1.00, 0.00, -0.00, -1.00, 261.3, 528.3)">/</text><text xml:space="preserve" font-family="Helvetica-LightOblique,Helvetica" font-style="italic" font-size="36.0" fill="#000000" transform="matrix(1.00, 0.00, -0.00, -1.00, 271.4, 528.3)">e</text><text xml:space="preserve" font-family="Helvetica-LightOblique,Helvetica" font-style="italic" font-size="36.0" fill="#000000" transform="matrix(1.00, 0.00, -0.00, -1.00, 291.4, 528.3)">n</text><text xml:space="preserve" font-family="Helvetica-LightOblique,Helvetica" font-style="italic" font-size="36.0" fill="#000000" transform="matrix(1.00, 0.00, -0.00, -1.00, 311.4, 528.3)">.</text><text xml:space="preserve" font-family="Helvetica-LightOblique,Helvetica" font-style="italic" font-size="36.0" fill="#000000" transform="matrix(1.00, 0.00, -0.00, -1.00, 321.4, 528.3)">l</text><text xml:space="preserve" font-family="Helvetica-LightOblique,Helvetica" font-style="italic" font-size="36.0" fill="#000000" transform="matrix(1.00, 0.00, -0.00, -1.00, 329.4, 528.3)">p</text><text xml:space="preserve" font-family="Helvetica-LightOblique,Helvetica" font-style="italic" font-size="36.0" fill="#000000" transform="matrix(1.00, 0.00, -0.00, -1.00, 351.4, 528.3)">r</text><text xml:space="preserve" font-family="Helvetica-LightOblique,Helvetica" font-style="italic" font-size="36.0" fill="#000000" transform="matrix(1.00, 0.00, -0.00, -1.00, 362.7, 528.3)">o</text><text xml:space="preserve" font-family="Helvetica-LightOblique,Helvetica" font-style="italic" font-size="36.0" fill="#000000" transform="matrix(1.00, 0.00, -0.00, -1.00, 382.7, 528.3)">j</text><text xml:space="preserve" font-family="Helvetica-LightOblique,Helvetica" font-style="italic" font-size="36.0" fill="#000000" transform="matrix(1.00, 0.00, -0.00, -1.00, 390.7, 528.3)">/</text><text xml:space="preserve" font-family="Helvetica-LightOblique,Helvetica" font-style="italic" font-size="36.0" fill="#000000" transform="matrix(1.00, 0.00, -0.00, -1.00, 100.6, 485.3)">L</text><text xml:space="preserve" font-family="Helvetica-LightOblique,Helvetica" font-style="italic" font-size="36.0" fill="#000000" transform="matrix(1.00, 0.00, -0.00, -1.00, 120.6, 485.3)">o</text><text xml:space="preserve" font-family="Helvetica-LightOblique,Helvetica" font-style="italic" font-size="36.0" fill="#000000" transform="matrix(1.00, 0.00, -0.00, -1.00, 140.7, 485.3)">c</text><text xml:space="preserve" font-family="Helvetica-LightOblique,Helvetica" font-style="italic" font-size="36.0" fill="#000000" transform="matrix(1.00, 0.00, -0.00, -1.00, 160.7, 485.3)">a</text><text xml:space="preserve" font-family="Helvetica-LightOblique,Helvetica" font-style="italic" font-size="36.0" fill="#000000" transform="matrix(1.00, 0.00, -0.00, -1.00, 180.7, 485.3)">l</text><text xml:space="preserve" font-family="Helvetica-LightOblique,Helvetica" font-style="italic" font-size="36.0" fill="#000000" transform="matrix(1.00, 0.00, -0.00, -1.00, 188.7, 485.3)">i</text><text xml:space="preserve" font-family="Helvetica-LightOblique,Helvetica" font-style="italic" font-size="36.0" fill="#000000" transform="matrix(1.00, 0.00, -0.00, -1.00, 196.7, 485.3)">z</text><text xml:space="preserve" font-family="Helvetica-LightOblique,Helvetica" font-style="italic" font-size="36.0" fill="#000000" transform="matrix(1.00, 0.00, -0.00, -1.00, 214.7, 485.3)">a</text><text xml:space="preserve" font-family="Helvetica-LightOblique,Helvetica" font-style="italic" font-size="36.0" fill="#000000" transform="matrix(1.00, 0.00, -0.00, -1.00, 234.7, 485.3)">b</text><text xml:space="preserve" font-family="Helvetica-LightOblique,Helvetica" font-style="italic" font-size="36.0" fill="#000000" transform="matrix(1.00, 0.00, -0.00, -1.00, 256.7, 485.3)">l</text><text xml:space="preserve" font-family="Helvetica-LightOblique,Helvetica" font-style="italic" font-size="36.0" fill="#000000" transform="matrix(1.00, 0.00, -0.00, -1.00, 264.7, 485.3)">e</text><text xml:space="preserve" font-family="Helvetica-LightOblique,Helvetica" font-style="italic" font-size="36.0" fill="#000000" transform="matrix(1.00, 0.00, -0.00, -1.00, 284.7, 485.3)">.</text><text xml:space="preserve" font-family="Helvetica-LightOblique,Helvetica" font-style="italic" font-size="36.0" fill="#000000" transform="matrix(1.00, 0.00, -0.00, -1.00, 294.7, 485.3)">s</text><text xml:space="preserve" font-family="Helvetica-LightOblique,Helvetica" font-style="italic" font-size="36.0" fill="#000000" transform="matrix(1.00, 0.00, -0.00, -1.00, 312.7, 485.3)">t</text><text xml:space="preserve" font-family="Helvetica-LightOblique,Helvetica" font-style="italic" font-size="36.0" fill="#000000" transform="matrix(1.00, 0.00, -0.00, -1.00, 322.7, 485.3)">r</text><text xml:space="preserve" font-family="Helvetica-LightOblique,Helvetica" font-style="italic" font-size="36.0" fill="#000000" transform="matrix(1.00, 0.00, -0.00, -1.00, 334.7, 485.3)">i</text><text xml:space="preserve" font-family="Helvetica-LightOblique,Helvetica" font-style="italic" font-size="36.0" fill="#000000" transform="matrix(1.00, 0.00, -0.00, -1.00, 342.7, 485.3)">n</text><text xml:space="preserve" font-family="Helvetica-LightOblique,Helvetica" font-style="italic" font-size="36.0" fill="#000000" transform="matrix(1.00, 0.00, -0.00, -1.00, 362.7, 485.3)">g</text><text xml:space="preserve" font-family="Helvetica-LightOblique,Helvetica" font-style="italic" font-size="36.0" fill="#000000" transform="matrix(1.00, 0.00, -0.00, -1.00, 384.7, 485.3)">s</text><path d="M -0.3 0.0 L 397.7 0.0 L 397.7 495.0 L -0.3 495.0 Z M 0.0 0.0 " fill="none" stroke="#85878C" stroke-width="2.00" transform="matrix(1.00, 0.00, 0.00, -1.00, 592.3, 559.0)"></path><g><clipPath id="clip0x7fbfd9b54840"><path d="M 591.3 65.0 L 990.7 65.0 L 990.7 558.0 L 591.3 558.0 Z M 591.3 65.0 "></path></clipPath><g clip-path="url(#clip0x7fbfd9b54840)"><text xml:space="preserve" font-family="Helvetica-Light,Helvetica" font-size="24.0" fill="#000000" transform="matrix(1.00, 0.00, -0.00, -1.00, 694.4, 331.5)">“</text><text xml:space="preserve" font-family="Helvetica-Light,Helvetica" font-size="24.0" fill="#000000" transform="matrix(1.00, 0.00, -0.00, -1.00, 703.7, 331.5)">s</text><text xml:space="preserve" font-family="Helvetica-Light,Helvetica" font-size="24.0" fill="#000000" transform="matrix(1.00, 0.00, -0.00, -1.00, 715.7, 331.5)">t</text><text xml:space="preserve" font-family="Helvetica-Light,Helvetica" font-size="24.0" fill="#000000" transform="matrix(1.00, 0.00, -0.00, -1.00, 722.4, 331.5)">r</text><text xml:space="preserve" font-family="Helvetica-Light,Helvetica" font-size="24.0" fill="#000000" transform="matrix(1.00, 0.00, -0.00, -1.00, 730.4, 331.5)">i</text><text xml:space="preserve" font-family="Helvetica-Light,Helvetica" font-size="24.0" fill="#000000" transform="matrix(1.00, 0.00, -0.00, -1.00, 735.7, 331.5)">n</text><text xml:space="preserve" font-family="Helvetica-Light,Helvetica" font-size="24.0" fill="#000000" transform="matrix(1.00, 0.00, -0.00, -1.00, 749.1, 331.5)">g</text><text xml:space="preserve" font-family="Helvetica-Light,Helvetica" font-size="24.0" fill="#000000" transform="matrix(1.00, 0.00, -0.00, -1.00, 763.7, 331.5)">”</text><text xml:space="preserve" font-family="Helvetica-Light,Helvetica" font-size="24.0" fill="#000000" transform="matrix(1.00, 0.00, -0.00, -1.00, 773.1, 331.5)"> </text><text xml:space="preserve" font-family="Helvetica-Light,Helvetica" font-size="24.0" fill="#000000" transform="matrix(1.00, 0.00, -0.00, -1.00, 779.7, 331.5)">=</text><text xml:space="preserve" font-family="Helvetica-Light,Helvetica" font-size="24.0" fill="#000000" transform="matrix(1.00, 0.00, -0.00, -1.00, 795.6, 331.5)"> </text><text xml:space="preserve" font-family="Helvetica-Light,Helvetica" font-size="24.0" fill="#000000" transform="matrix(1.00, 0.00, -0.00, -1.00, 802.3, 331.5)">“</text><text xml:space="preserve" font-family="Helvetica-Light,Helvetica" font-size="24.0" fill="#000000" transform="matrix(1.00, 0.00, -0.00, -1.00, 811.6, 331.5)">s</text><text xml:space="preserve" font-family="Helvetica-Light,Helvetica" font-size="24.0" fill="#000000" transform="matrix(1.00, 0.00, -0.00, -1.00, 823.6, 331.5)">t</text><text xml:space="preserve" font-family="Helvetica-Light,Helvetica" font-size="24.0" fill="#000000" transform="matrix(1.00, 0.00, -0.00, -1.00, 830.3, 331.5)">r</text><text xml:space="preserve" font-family="Helvetica-Light,Helvetica" font-size="24.0" fill="#000000" transform="matrix(1.00, 0.00, -0.00, -1.00, 838.3, 331.5)">i</text><text xml:space="preserve" font-family="Helvetica-Light,Helvetica" font-size="24.0" fill="#000000" transform="matrix(1.00, 0.00, -0.00, -1.00, 843.6, 331.5)">n</text><text xml:space="preserve" font-family="Helvetica-Light,Helvetica" font-size="24.0" fill="#000000" transform="matrix(1.00, 0.00, -0.00, -1.00, 856.9, 331.5)">g</text><text xml:space="preserve" font-family="Helvetica-Light,Helvetica" font-size="24.0" fill="#000000" transform="matrix(1.00, 0.00, -0.00, -1.00, 871.6, 331.5)">”</text><text xml:space="preserve" font-family="Helvetica-Light,Helvetica" font-size="24.0" fill="#000000" transform="matrix(1.00, 0.00, -0.00, -1.00, 880.9, 331.5)">;</text><text xml:space="preserve" font-family="Helvetica-Light,Helvetica" font-size="24.0" fill="#000000" transform="matrix(1.00, 0.00, -0.00, -1.00, 887.6, 331.5)"> </text><text xml:space="preserve" font-family="Helvetica-Light,Helvetica" font-size="24.0" fill="#000000" transform="matrix(1.00, 0.00, -0.00, -1.00, 606.3, 302.5)">“</text><text xml:space="preserve" font-family="Helvetica-Light,Helvetica" font-size="24.0" fill="#000000" transform="matrix(1.00, 0.00, -0.00, -1.00, 615.7, 302.5)">a</text><text xml:space="preserve" font-family="Helvetica-Light,Helvetica" font-size="24.0" fill="#000000" transform="matrix(1.00, 0.00, -0.00, -1.00, 629.0, 302.5)">n</text><text xml:space="preserve" font-family="Helvetica-Light,Helvetica" font-size="24.0" fill="#000000" transform="matrix(1.00, 0.00, -0.00, -1.00, 642.4, 302.5)">o</text><text xml:space="preserve" font-family="Helvetica-Light,Helvetica" font-size="24.0" fill="#000000" transform="matrix(1.00, 0.00, -0.00, -1.00, 655.7, 302.5)">t</text><text xml:space="preserve" font-family="Helvetica-Light,Helvetica" font-size="24.0" fill="#000000" transform="matrix(1.00, 0.00, -0.00, -1.00, 662.4, 302.5)">h</text><text xml:space="preserve" font-family="Helvetica-Light,Helvetica" font-size="24.0" fill="#000000" transform="matrix(1.00, 0.00, -0.00, -1.00, 675.7, 302.5)">e</text><text xml:space="preserve" font-family="Helvetica-Light,Helvetica" font-size="24.0" fill="#000000" transform="matrix(1.00, 0.00, -0.00, -1.00, 689.1, 302.5)">r</text><text xml:space="preserve" font-family="Helvetica-Light,Helvetica" font-size="24.0" fill="#000000" transform="matrix(1.00, 0.00, -0.00, -1.00, 697.1, 302.5)"> </text><text xml:space="preserve" font-family="Helvetica-Light,Helvetica" font-size="24.0" fill="#000000" transform="matrix(1.00, 0.00, -0.00, -1.00, 703.7, 302.5)">s</text><text xml:space="preserve" font-family="Helvetica-Light,Helvetica" font-size="24.0" fill="#000000" transform="matrix(1.00, 0.00, -0.00, -1.00, 715.7, 302.5)">t</text><text xml:space="preserve" font-family="Helvetica-Light,Helvetica" font-size="24.0" fill="#000000" transform="matrix(1.00, 0.00, -0.00, -1.00, 722.4, 302.5)">r</text><text xml:space="preserve" font-family="Helvetica-Light,Helvetica" font-size="24.0" fill="#000000" transform="matrix(1.00, 0.00, -0.00, -1.00, 730.4, 302.5)">i</text><text xml:space="preserve" font-family="Helvetica-Light,Helvetica" font-size="24.0" fill="#000000" transform="matrix(1.00, 0.00, -0.00, -1.00, 735.7, 302.5)">n</text><text xml:space="preserve" font-family="Helvetica-Light,Helvetica" font-size="24.0" fill="#000000" transform="matrix(1.00, 0.00, -0.00, -1.00, 749.1, 302.5)">g</text><text xml:space="preserve" font-family="Helvetica-Light,Helvetica" font-size="24.0" fill="#000000" transform="matrix(1.00, 0.00, -0.00, -1.00, 763.7, 302.5)">”</text><text xml:space="preserve" font-family="Helvetica-Light,Helvetica" font-size="24.0" fill="#000000" transform="matrix(1.00, 0.00, -0.00, -1.00, 773.1, 302.5)"> </text><text xml:space="preserve" font-family="Helvetica-Light,Helvetica" font-size="24.0" fill="#000000" transform="matrix(1.00, 0.00, -0.00, -1.00, 779.7, 302.5)">=</text><text xml:space="preserve" font-family="Helvetica-Light,Helvetica" font-size="24.0" fill="#000000" transform="matrix(1.00, 0.00, -0.00, -1.00, 795.6, 302.5)"> </text><text xml:space="preserve" font-family="Helvetica-Light,Helvetica" font-size="24.0" fill="#000000" transform="matrix(1.00, 0.00, -0.00, -1.00, 802.3, 302.5)">“</text><text xml:space="preserve" font-family="Helvetica-Light,Helvetica" font-size="24.0" fill="#000000" transform="matrix(1.00, 0.00, -0.00, -1.00, 811.6, 302.5)">a</text><text xml:space="preserve" font-family="Helvetica-Light,Helvetica" font-size="24.0" fill="#000000" transform="matrix(1.00, 0.00, -0.00, -1.00, 824.9, 302.5)">n</text><text xml:space="preserve" font-family="Helvetica-Light,Helvetica" font-size="24.0" fill="#000000" transform="matrix(1.00, 0.00, -0.00, -1.00, 838.3, 302.5)">o</text><text xml:space="preserve" font-family="Helvetica-Light,Helvetica" font-size="24.0" fill="#000000" transform="matrix(1.00, 0.00, -0.00, -1.00, 851.6, 302.5)">t</text><text xml:space="preserve" font-family="Helvetica-Light,Helvetica" font-size="24.0" fill="#000000" transform="matrix(1.00, 0.00, -0.00, -1.00, 858.3, 302.5)">h</text><text xml:space="preserve" font-family="Helvetica-Light,Helvetica" font-size="24.0" fill="#000000" transform="matrix(1.00, 0.00, -0.00, -1.00, 871.6, 302.5)">e</text><text xml:space="preserve" font-family="Helvetica-Light,Helvetica" font-size="24.0" fill="#000000" transform="matrix(1.00, 0.00, -0.00, -1.00, 885.0, 302.5)">r</text><text xml:space="preserve" font-family="Helvetica-Light,Helvetica" font-size="24.0" fill="#000000" transform="matrix(1.00, 0.00, -0.00, -1.00, 893.0, 302.5)"> </text><text xml:space="preserve" font-family="Helvetica-Light,Helvetica" font-size="24.0" fill="#000000" transform="matrix(1.00, 0.00, -0.00, -1.00, 899.6, 302.5)">s</text><text xml:space="preserve" font-family="Helvetica-Light,Helvetica" font-size="24.0" fill="#000000" transform="matrix(1.00, 0.00, -0.00, -1.00, 911.6, 302.5)">t</text><text xml:space="preserve" font-family="Helvetica-Light,Helvetica" font-size="24.0" fill="#000000" transform="matrix(1.00, 0.00, -0.00, -1.00, 918.3, 302.5)">r</text><text xml:space="preserve" font-family="Helvetica-Light,Helvetica" font-size="24.0" fill="#000000" transform="matrix(1.00, 0.00, -0.00, -1.00, 926.3, 302.5)">i</text><text xml:space="preserve" font-family="Helvetica-Light,Helvetica" font-size="24.0" fill="#000000" transform="matrix(1.00, 0.00, -0.00, -1.00, 931.6, 302.5)">n</text><text xml:space="preserve" font-family="Helvetica-Light,Helvetica" font-size="24.0" fill="#000000" transform="matrix(1.00, 0.00, -0.00, -1.00, 945.0, 302.5)">g</text><text xml:space="preserve" font-family="Helvetica-Light,Helvetica" font-size="24.0" fill="#000000" transform="matrix(1.00, 0.00, -0.00, -1.00, 959.6, 302.5)">”</text><text xml:space="preserve" font-family="Helvetica-Light,Helvetica" font-size="24.0" fill="#000000" transform="matrix(1.00, 0.00, -0.00, -1.00, 969.0, 302.5)">;</text><text xml:space="preserve" font-family="Helvetica-Light,Helvetica" font-size="24.0" fill="#000000" transform="matrix(1.00, 0.00, -0.00, -1.00, 975.7, 302.5)"> </text><text xml:space="preserve" font-family="Helvetica-Light,Helvetica" font-size="24.0" fill="#000000" transform="matrix(1.00, 0.00, -0.00, -1.00, 640.2, 273.5)">“</text><text xml:space="preserve" font-family="Helvetica-Light,Helvetica" font-size="24.0" fill="#000000" transform="matrix(1.00, 0.00, -0.00, -1.00, 649.5, 273.5)">t</text><text xml:space="preserve" font-family="Helvetica-Light,Helvetica" font-size="24.0" fill="#000000" transform="matrix(1.00, 0.00, -0.00, -1.00, 656.2, 273.5)">h</text><text xml:space="preserve" font-family="Helvetica-Light,Helvetica" font-size="24.0" fill="#000000" transform="matrix(1.00, 0.00, -0.00, -1.00, 669.5, 273.5)">i</text><text xml:space="preserve" font-family="Helvetica-Light,Helvetica" font-size="24.0" fill="#000000" transform="matrix(1.00, 0.00, -0.00, -1.00, 674.8, 273.5)">r</text><text xml:space="preserve" font-family="Helvetica-Light,Helvetica" font-size="24.0" fill="#000000" transform="matrix(1.00, 0.00, -0.00, -1.00, 682.4, 273.5)">d</text><text xml:space="preserve" font-family="Helvetica-Light,Helvetica" font-size="24.0" fill="#000000" transform="matrix(1.00, 0.00, -0.00, -1.00, 697.1, 273.5)"> </text><text xml:space="preserve" font-family="Helvetica-Light,Helvetica" font-size="24.0" fill="#000000" transform="matrix(1.00, 0.00, -0.00, -1.00, 703.7, 273.5)">s</text><text xml:space="preserve" font-family="Helvetica-Light,Helvetica" font-size="24.0" fill="#000000" transform="matrix(1.00, 0.00, -0.00, -1.00, 715.7, 273.5)">t</text><text xml:space="preserve" font-family="Helvetica-Light,Helvetica" font-size="24.0" fill="#000000" transform="matrix(1.00, 0.00, -0.00, -1.00, 722.4, 273.5)">r</text><text xml:space="preserve" font-family="Helvetica-Light,Helvetica" font-size="24.0" fill="#000000" transform="matrix(1.00, 0.00, -0.00, -1.00, 730.4, 273.5)">i</text><text xml:space="preserve" font-family="Helvetica-Light,Helvetica" font-size="24.0" fill="#000000" transform="matrix(1.00, 0.00, -0.00, -1.00, 735.7, 273.5)">n</text><text xml:space="preserve" font-family="Helvetica-Light,Helvetica" font-size="24.0" fill="#000000" transform="matrix(1.00, 0.00, -0.00, -1.00, 749.1, 273.5)">g</text><text xml:space="preserve" font-family="Helvetica-Light,Helvetica" font-size="24.0" fill="#000000" transform="matrix(1.00, 0.00, -0.00, -1.00, 763.7, 273.5)">”</text><text xml:space="preserve" font-family="Helvetica-Light,Helvetica" font-size="24.0" fill="#000000" transform="matrix(1.00, 0.00, -0.00, -1.00, 773.1, 273.5)"> </text><text xml:space="preserve" font-family="Helvetica-Light,Helvetica" font-size="24.0" fill="#000000" transform="matrix(1.00, 0.00, -0.00, -1.00, 779.7, 273.5)">=</text><text xml:space="preserve" font-family="Helvetica-Light,Helvetica" font-size="24.0" fill="#000000" transform="matrix(1.00, 0.00, -0.00, -1.00, 795.6, 273.5)"> </text><text xml:space="preserve" font-family="Helvetica-Light,Helvetica" font-size="24.0" fill="#000000" transform="matrix(1.00, 0.00, -0.00, -1.00, 802.3, 273.5)">“</text><text xml:space="preserve" font-family="Helvetica-Light,Helvetica" font-size="24.0" fill="#000000" transform="matrix(1.00, 0.00, -0.00, -1.00, 811.6, 273.5)">t</text><text xml:space="preserve" font-family="Helvetica-Light,Helvetica" font-size="24.0" fill="#000000" transform="matrix(1.00, 0.00, -0.00, -1.00, 818.3, 273.5)">h</text><text xml:space="preserve" font-family="Helvetica-Light,Helvetica" font-size="24.0" fill="#000000" transform="matrix(1.00, 0.00, -0.00, -1.00, 831.6, 273.5)">i</text><text xml:space="preserve" font-family="Helvetica-Light,Helvetica" font-size="24.0" fill="#000000" transform="matrix(1.00, 0.00, -0.00, -1.00, 836.9, 273.5)">r</text><text xml:space="preserve" font-family="Helvetica-Light,Helvetica" font-size="24.0" fill="#000000" transform="matrix(1.00, 0.00, -0.00, -1.00, 844.5, 273.5)">d</text><text xml:space="preserve" font-family="Helvetica-Light,Helvetica" font-size="24.0" fill="#000000" transform="matrix(1.00, 0.00, -0.00, -1.00, 859.2, 273.5)"> </text><text xml:space="preserve" font-family="Helvetica-Light,Helvetica" font-size="24.0" fill="#000000" transform="matrix(1.00, 0.00, -0.00, -1.00, 865.8, 273.5)">s</text><text xml:space="preserve" font-family="Helvetica-Light,Helvetica" font-size="24.0" fill="#000000" transform="matrix(1.00, 0.00, -0.00, -1.00, 877.8, 273.5)">t</text><text xml:space="preserve" font-family="Helvetica-Light,Helvetica" font-size="24.0" fill="#000000" transform="matrix(1.00, 0.00, -0.00, -1.00, 884.5, 273.5)">r</text><text xml:space="preserve" font-family="Helvetica-Light,Helvetica" font-size="24.0" fill="#000000" transform="matrix(1.00, 0.00, -0.00, -1.00, 892.5, 273.5)">i</text><text xml:space="preserve" font-family="Helvetica-Light,Helvetica" font-size="24.0" fill="#000000" transform="matrix(1.00, 0.00, -0.00, -1.00, 897.8, 273.5)">n</text><text xml:space="preserve" font-family="Helvetica-Light,Helvetica" font-size="24.0" fill="#000000" transform="matrix(1.00, 0.00, -0.00, -1.00, 911.2, 273.5)">g</text><text xml:space="preserve" font-family="Helvetica-Light,Helvetica" font-size="24.0" fill="#000000" transform="matrix(1.00, 0.00, -0.00, -1.00, 925.8, 273.5)">”</text><text xml:space="preserve" font-family="Helvetica-Light,Helvetica" font-size="24.0" fill="#000000" transform="matrix(1.00, 0.00, -0.00, -1.00, 935.2, 273.5)">;</text></g></g><text xml:space="preserve" font-family="Helvetica-LightOblique,Helvetica" font-style="italic" font-size="36.0" fill="#000000" transform="matrix(1.00, 0.00, -0.00, -1.00, 635.9, 528.3)">e</text><text xml:space="preserve" font-family="Helvetica-LightOblique,Helvetica" font-style="italic" font-size="36.0" fill="#000000" transform="matrix(1.00, 0.00, -0.00, -1.00, 656.0, 528.3)">v</text><text xml:space="preserve" font-family="Helvetica-LightOblique,Helvetica" font-style="italic" font-size="36.0" fill="#000000" transform="matrix(1.00, 0.00, -0.00, -1.00, 674.0, 528.3)">e</text><text xml:space="preserve" font-family="Helvetica-LightOblique,Helvetica" font-style="italic" font-size="36.0" fill="#000000" transform="matrix(1.00, 0.00, -0.00, -1.00, 694.0, 528.3)">r</text><text xml:space="preserve" font-family="Helvetica-LightOblique,Helvetica" font-style="italic" font-size="36.0" fill="#000000" transform="matrix(1.00, 0.00, -0.00, -1.00, 706.6, 528.3)">y</text><text xml:space="preserve" font-family="Helvetica-LightOblique,Helvetica" font-style="italic" font-size="36.0" fill="#000000" transform="matrix(1.00, 0.00, -0.00, -1.00, 724.6, 528.3)"> </text><text xml:space="preserve" font-family="Helvetica-LightOblique,Helvetica" font-style="italic" font-size="36.0" fill="#000000" transform="matrix(1.00, 0.00, -0.00, -1.00, 734.6, 528.3)">o</text><text xml:space="preserve" font-family="Helvetica-LightOblique,Helvetica" font-style="italic" font-size="36.0" fill="#000000" transform="matrix(1.00, 0.00, -0.00, -1.00, 754.6, 528.3)">t</text><text xml:space="preserve" font-family="Helvetica-LightOblique,Helvetica" font-style="italic" font-size="36.0" fill="#000000" transform="matrix(1.00, 0.00, -0.00, -1.00, 764.6, 528.3)">h</text><text xml:space="preserve" font-family="Helvetica-LightOblique,Helvetica" font-style="italic" font-size="36.0" fill="#000000" transform="matrix(1.00, 0.00, -0.00, -1.00, 784.7, 528.3)">e</text><text xml:space="preserve" font-family="Helvetica-LightOblique,Helvetica" font-style="italic" font-size="36.0" fill="#000000" transform="matrix(1.00, 0.00, -0.00, -1.00, 804.7, 528.3)">r</text><text xml:space="preserve" font-family="Helvetica-LightOblique,Helvetica" font-style="italic" font-size="36.0" fill="#000000" transform="matrix(1.00, 0.00, -0.00, -1.00, 816.7, 528.3)"> </text><text xml:space="preserve" font-family="Helvetica-LightOblique,Helvetica" font-style="italic" font-size="36.0" fill="#000000" transform="matrix(1.00, 0.00, -0.00, -1.00, 826.7, 528.3)">l</text><text xml:space="preserve" font-family="Helvetica-LightOblique,Helvetica" font-style="italic" font-size="36.0" fill="#000000" transform="matrix(1.00, 0.00, -0.00, -1.00, 834.7, 528.3)">o</text><text xml:space="preserve" font-family="Helvetica-LightOblique,Helvetica" font-style="italic" font-size="36.0" fill="#000000" transform="matrix(1.00, 0.00, -0.00, -1.00, 854.7, 528.3)">c</text><text xml:space="preserve" font-family="Helvetica-LightOblique,Helvetica" font-style="italic" font-size="36.0" fill="#000000" transform="matrix(1.00, 0.00, -0.00, -1.00, 874.7, 528.3)">a</text><text xml:space="preserve" font-family="Helvetica-LightOblique,Helvetica" font-style="italic" font-size="36.0" fill="#000000" transform="matrix(1.00, 0.00, -0.00, -1.00, 894.7, 528.3)">l</text><text xml:space="preserve" font-family="Helvetica-LightOblique,Helvetica" font-style="italic" font-size="36.0" fill="#000000" transform="matrix(1.00, 0.00, -0.00, -1.00, 902.7, 528.3)">e</text><text xml:space="preserve" font-family="Helvetica-LightOblique,Helvetica" font-style="italic" font-size="36.0" fill="#000000" transform="matrix(1.00, 0.00, -0.00, -1.00, 922.7, 528.3)">’</text><text xml:space="preserve" font-family="Helvetica-LightOblique,Helvetica" font-style="italic" font-size="36.0" fill="#000000" transform="matrix(1.00, 0.00, -0.00, -1.00, 928.0, 528.3)">s</text><text xml:space="preserve" font-family="Helvetica-LightOblique,Helvetica" font-style="italic" font-size="36.0" fill="#000000" transform="matrix(1.00, 0.00, -0.00, -1.00, 946.0, 528.3)"> </text><text xml:space="preserve" font-family="Helvetica-LightOblique,Helvetica" font-style="italic" font-size="36.0" fill="#000000" transform="matrix(1.00, 0.00, -0.00, -1.00, 612.0, 485.3)">L</text><text xml:space="preserve" font-family="Helvetica-LightOblique,Helvetica" font-style="italic" font-size="36.0" fill="#000000" transform="matrix(1.00, 0.00, -0.00, -1.00, 632.0, 485.3)">o</text><text xml:space="preserve" font-family="Helvetica-LightOblique,Helvetica" font-style="italic" font-size="36.0" fill="#000000" transform="matrix(1.00, 0.00, -0.00, -1.00, 652.0, 485.3)">c</text><text xml:space="preserve" font-family="Helvetica-LightOblique,Helvetica" font-style="italic" font-size="36.0" fill="#000000" transform="matrix(1.00, 0.00, -0.00, -1.00, 672.0, 485.3)">a</text><text xml:space="preserve" font-family="Helvetica-LightOblique,Helvetica" font-style="italic" font-size="36.0" fill="#000000" transform="matrix(1.00, 0.00, -0.00, -1.00, 692.0, 485.3)">l</text><text xml:space="preserve" font-family="Helvetica-LightOblique,Helvetica" font-style="italic" font-size="36.0" fill="#000000" transform="matrix(1.00, 0.00, -0.00, -1.00, 700.0, 485.3)">i</text><text xml:space="preserve" font-family="Helvetica-LightOblique,Helvetica" font-style="italic" font-size="36.0" fill="#000000" transform="matrix(1.00, 0.00, -0.00, -1.00, 708.0, 485.3)">z</text><text xml:space="preserve" font-family="Helvetica-LightOblique,Helvetica" font-style="italic" font-size="36.0" fill="#000000" transform="matrix(1.00, 0.00, -0.00, -1.00, 726.0, 485.3)">a</text><text xml:space="preserve" font-family="Helvetica-LightOblique,Helvetica" font-style="italic" font-size="36.0" fill="#000000" transform="matrix(1.00, 0.00, -0.00, -1.00, 746.0, 485.3)">b</text><text xml:space="preserve" font-family="Helvetica-LightOblique,Helvetica" font-style="italic" font-size="36.0" fill="#000000" transform="matrix(1.00, 0.00, -0.00, -1.00, 768.0, 485.3)">l</text><text xml:space="preserve" font-family="Helvetica-LightOblique,Helvetica" font-style="italic" font-size="36.0" fill="#000000" transform="matrix(1.00, 0.00, -0.00, -1.00, 776.0, 485.3)">e</text><text xml:space="preserve" font-family="Helvetica-LightOblique,Helvetica" font-style="italic" font-size="36.0" fill="#000000" transform="matrix(1.00, 0.00, -0.00, -1.00, 796.0, 485.3)">.</text><text xml:space="preserve" font-family="Helvetica-LightOblique,Helvetica" font-style="italic" font-size="36.0" fill="#000000" transform="matrix(1.00, 0.00, -0.00, -1.00, 806.0, 485.3)">s</text><text xml:space="preserve" font-family="Helvetica-LightOblique,Helvetica" font-style="italic" font-size="36.0" fill="#000000" transform="matrix(1.00, 0.00, -0.00, -1.00, 824.0, 485.3)">t</text><text xml:space="preserve" font-family="Helvetica-LightOblique,Helvetica" font-style="italic" font-size="36.0" fill="#000000" transform="matrix(1.00, 0.00, -0.00, -1.00, 834.0, 485.3)">r</text><text xml:space="preserve" font-family="Helvetica-LightOblique,Helvetica" font-style="italic" font-size="36.0" fill="#000000" transform="matrix(1.00, 0.00, -0.00, -1.00, 846.0, 485.3)">i</text><text xml:space="preserve" font-family="Helvetica-LightOblique,Helvetica" font-style="italic" font-size="36.0" fill="#000000" transform="matrix(1.00, 0.00, -0.00, -1.00, 854.0, 485.3)">n</text><text xml:space="preserve" font-family="Helvetica-LightOblique,Helvetica" font-style="italic" font-size="36.0" fill="#000000" transform="matrix(1.00, 0.00, -0.00, -1.00, 874.0, 485.3)">g</text><text xml:space="preserve" font-family="Helvetica-LightOblique,Helvetica" font-style="italic" font-size="36.0" fill="#000000" transform="matrix(1.00, 0.00, -0.00, -1.00, 896.0, 485.3)">s</text><text xml:space="preserve" font-family="Helvetica-LightOblique,Helvetica" font-style="italic" font-size="36.0" fill="#000000" transform="matrix(1.00, 0.00, -0.00, -1.00, 914.0, 485.3)"> </text><text xml:space="preserve" font-family="Helvetica-LightOblique,Helvetica" font-style="italic" font-size="36.0" fill="#000000" transform="matrix(1.00, 0.00, -0.00, -1.00, 924.0, 485.3)">ﬁ</text><text xml:space="preserve" font-family="Helvetica-LightOblique,Helvetica" font-style="italic" font-size="36.0" fill="#000000" transform="matrix(1.00, 0.00, -0.00, -1.00, 942.0, 485.3)">l</text><text xml:space="preserve" font-family="Helvetica-LightOblique,Helvetica" font-style="italic" font-size="36.0" fill="#000000" transform="matrix(1.00, 0.00, -0.00, -1.00, 950.0, 485.3)">e</text><path d="M 461.8 310.0 C 461.5 310.2 460.8 309.9 460.6 310.1 M 461.8 310.0 C 461.1 308.9 459.8 308.8 458.0 308.6 C 456.1 308.6 458.1 309.7 457.8 310.1 C 455.3 310.5 455.3 309.7 455.7 308.6 C 454.8 309.4 451.9 307.9 452.5 309.4 C 456.5 309.4 449.7 309.8 453.0 310.6 C 453.4 310.9 452.4 311.3 452.0 311.3 C 453.2 311.9 451.3 312.6 453.0 313.0 C 453.3 314.0 453.0 313.6 454.1 314.3 C 454.6 314.4 454.4 314.1 454.3 313.9 C 454.5 312.8 455.7 314.5 456.7 313.8 C 457.5 315.2 458.4 313.5 457.6 312.9 C 458.5 313.1 459.5 314.6 460.3 313.6 C 460.8 314.3 463.1 313.8 461.7 312.9 C 460.7 312.3 461.9 311.9 462.0 311.6 C 461.7 311.3 460.3 311.7 460.1 311.4 C 460.5 311.2 462.3 310.7 460.4 310.7 C 461.0 310.2 460.0 309.9 461.8 310.0 C 461.8 310.0 461.8 310.0 461.8 310.0 Z M 455.0 309.2 C 455.0 308.8 455.6 309.2 455.0 309.2 C 455.0 309.2 455.0 309.2 455.0 309.2 Z M 459.6 314.3 C 459.6 313.9 460.3 314.3 459.6 314.3 C 459.6 314.3 459.6 314.3 459.6 314.3 Z M 454.7 313.9 C 454.6 313.5 455.3 313.9 454.7 313.9 C 454.7 313.9 454.7 313.9 454.7 313.9 Z M 456.8 309.4 C 457.8 309.8 455.9 310.0 455.7 309.6 C 455.9 309.7 456.5 309.1 456.8 309.4 C 456.8 309.4 456.8 309.4 456.8 309.4 Z M 456.9 311.6 C 457.0 311.5 457.4 311.4 457.4 311.8 C 457.1 311.9 456.8 311.8 456.9 311.6 C 456.9 311.6 456.9 311.6 456.9 311.6 Z M 451.6 310.1 C 451.7 309.9 452.1 309.9 452.1 310.3 C 451.8 310.4 451.5 310.2 451.6 310.1 C 451.6 310.1 451.6 310.1 451.6 310.1 Z M 458.0 310.4 C 458.2 310.5 458.4 310.9 458.0 310.9 C 457.9 310.7 457.1 310.7 458.0 310.4 C 458.0 310.4 458.0 310.4 458.0 310.4 Z M 459.7 309.2 C 460.5 309.4 458.7 309.9 458.8 309.8 C 458.5 309.5 459.2 308.9 459.7 309.2 C 459.7 309.2 459.7 309.2 459.7 309.2 Z M 458.5 311.0 C 459.2 311.2 458.2 311.2 458.5 311.0 C 458.5 311.0 458.5 311.0 458.5 311.0 Z M 452.3 312.9 C 453.1 313.1 452.0 313.2 452.3 312.9 C 452.3 312.9 452.3 312.9 452.3 312.9 Z M 456.3 314.1 C 457.0 314.3 455.9 314.4 456.3 314.1 C 456.3 314.1 456.3 314.1 456.3 314.1 Z M 454.8 310.2 C 453.5 310.2 454.6 309.2 454.8 310.2 C 454.8 310.2 454.8 310.2 454.8 310.2 Z M 461.7 309.1 C 460.4 309.1 461.5 308.1 461.7 309.1 C 461.7 309.1 461.7 309.1 461.7 309.1 Z M 571.8 309.4 C 573.0 309.2 568.4 308.0 570.1 309.5 C 570.6 310.7 567.5 310.6 568.3 309.5 C 567.4 309.3 567.4 309.2 566.9 309.8 C 566.7 308.9 564.5 308.5 563.8 308.9 C 563.3 309.7 565.2 309.0 564.0 309.9 C 561.3 310.1 564.2 310.7 563.1 311.7 C 563.0 311.7 563.0 311.2 562.7 311.5 C 562.6 312.5 564.2 313.1 563.5 313.8 C 563.9 313.7 565.9 314.7 565.0 313.9 C 564.8 313.0 567.2 315.0 567.0 313.5 C 567.7 314.2 568.3 313.2 568.9 314.1 C 569.4 314.2 569.4 313.5 569.4 313.3 C 569.3 312.6 569.9 314.8 570.7 313.6 C 570.8 314.0 573.0 313.8 571.3 313.3 C 571.8 313.4 574.3 313.7 573.0 312.4 C 571.3 311.8 574.8 311.0 572.7 311.0 C 571.2 310.8 570.9 311.1 572.0 310.4 C 572.4 310.5 574.2 310.3 572.7 309.7 C 572.3 309.9 571.6 309.8 571.8 309.4 C 571.8 309.4 571.8 309.4 571.8 309.4 Z M 572.1 311.4 C 571.2 311.4 572.1 310.9 572.1 311.4 C 572.1 311.4 572.1 311.4 572.1 311.4 Z M 568.8 314.4 C 567.9 314.4 568.7 313.9 568.8 314.4 C 568.8 314.4 568.8 314.4 568.8 314.4 Z M 568.9 309.1 C 568.5 309.5 568.4 308.1 568.9 309.1 C 568.9 309.1 568.9 309.1 568.9 309.1 Z M 570.3 313.3 C 570.3 313.3 570.5 313.1 570.7 313.0 C 570.6 313.1 570.4 313.3 570.3 313.3 C 570.3 313.3 570.3 313.3 570.3 313.3 Z M 567.4 309.1 C 566.0 309.8 567.1 308.0 567.4 309.1 C 567.4 309.1 567.4 309.1 567.4 309.1 Z M 564.6 310.4 C 564.5 311.8 563.2 310.1 564.6 310.4 C 564.6 310.4 564.6 310.4 564.6 310.4 Z M 566.6 313.4 C 566.8 313.1 566.8 313.6 566.6 313.4 C 566.6 313.4 566.6 313.4 566.6 313.4 Z M 572.5 313.6 C 572.7 313.3 572.7 313.8 572.5 313.6 C 572.5 313.6 572.5 313.6 572.5 313.6 Z M 564.9 313.3 C 565.0 312.8 565.4 313.6 564.9 313.3 C 564.9 313.3 564.9 313.3 564.9 313.3 Z M 568.7 309.7 C 569.9 308.6 570.2 311.2 568.7 309.7 C 568.7 309.7 568.7 309.7 568.7 309.7 Z M 570.9 309.5 C 571.8 309.3 570.8 310.2 570.4 310.1 C 570.4 309.9 570.8 309.6 570.9 309.5 C 570.9 309.5 570.9 309.5 570.9 309.5 Z M 567.4 309.8 C 568.2 309.2 568.2 310.1 567.4 309.8 C 567.4 309.8 567.4 309.8 567.4 309.8 Z M 569.5 309.2 C 570.0 309.3 569.2 309.3 569.5 309.2 C 569.5 309.2 569.5 309.2 569.5 309.2 Z M 565.7 308.6 C 566.1 308.8 565.3 308.8 565.7 308.6 C 565.7 308.6 565.7 308.6 565.7 308.6 Z M 572.0 309.0 C 572.4 309.1 571.6 309.1 572.0 309.0 C 572.0 309.0 572.0 309.0 572.0 309.0 Z M 566.0 309.4 C 565.9 309.8 567.1 310.9 564.9 310.0 C 564.6 309.7 565.5 309.0 566.0 309.4 C 566.0 309.4 566.0 309.4 566.0 309.4 Z M 464.9 310.0 C 460.3 308.5 461.4 311.2 461.2 311.7 C 460.6 312.4 461.2 312.9 462.1 313.4 C 463.1 315.1 463.6 311.6 464.3 313.3 C 465.5 315.6 465.7 311.4 466.2 313.8 C 466.0 314.4 467.8 313.9 467.7 313.7 C 468.6 314.9 469.9 312.8 469.9 312.6 C 470.5 312.9 470.5 315.1 472.4 313.5 C 473.8 312.9 474.5 315.0 474.1 313.6 C 475.1 315.2 474.8 313.1 475.9 313.6 C 476.6 314.5 475.9 312.2 477.2 314.0 C 477.8 312.6 476.6 314.9 480.2 313.9 C 478.4 313.8 481.8 312.8 481.2 313.7 C 479.9 314.7 482.8 313.4 484.5 314.0 C 484.9 313.4 486.8 312.2 486.5 313.6 C 488.2 315.1 488.2 312.6 488.9 313.9 C 489.5 314.4 489.7 313.3 490.1 313.4 C 490.7 314.3 491.2 313.7 493.3 314.0 C 497.9 314.5 494.0 311.5 495.7 311.1 C 496.0 310.7 493.5 307.5 494.5 309.9 C 494.1 309.2 490.4 311.7 492.3 309.1 C 490.9 310.1 492.6 308.0 489.7 309.2 C 493.6 311.1 485.3 310.0 489.0 309.1 C 488.4 308.5 486.9 308.6 488.0 309.1 C 488.4 310.8 485.3 308.3 486.9 310.4 C 484.5 309.8 485.1 311.7 484.4 310.4 C 483.8 308.1 484.5 310.9 483.3 310.3 C 480.5 310.3 482.7 307.7 481.0 309.4 C 478.2 308.3 480.3 310.4 479.4 310.7 C 479.1 312.2 476.5 309.5 478.7 309.3 C 477.5 310.1 478.5 308.5 477.2 309.5 C 478.1 310.9 475.6 308.0 475.9 309.1 C 474.8 309.5 475.4 310.4 475.0 310.4 C 473.3 310.4 473.9 309.0 473.5 310.0 C 473.1 310.6 472.3 308.8 472.1 309.2 C 473.9 309.3 470.7 310.7 470.5 310.0 C 471.6 309.9 470.0 308.1 469.3 309.2 C 470.1 312.3 467.8 308.4 467.0 309.5 C 467.7 311.2 463.2 309.7 464.9 308.9 C 464.8 309.1 465.0 310.1 464.9 310.0 M 471.6 309.5 C 473.0 309.6 470.1 309.8 471.6 309.5 M 471.6 309.0 C 472.2 309.6 470.2 308.6 471.6 308.8 C 471.7 308.8 471.5 309.0 471.6 309.0 M 477.5 309.0 C 477.3 309.5 476.7 308.7 477.5 309.0 M 478.6 310.0 C 479.6 310.5 477.3 310.1 478.6 310.0 M 491.7 309.7 C 490.4 312.3 490.3 308.3 491.7 309.7 M 483.0 309.2 C 481.4 309.5 483.6 308.1 483.0 309.2 M 482.6 309.8 C 481.8 310.2 482.4 309.2 482.6 309.8 M 489.2 309.7 C 489.3 309.7 489.3 309.7 489.2 309.7 C 489.2 309.7 489.2 309.7 489.2 309.7 Z M 493.1 309.8 C 493.1 309.7 493.1 309.7 493.1 309.8 C 493.1 309.8 493.1 309.8 493.1 309.8 Z M 485.4 310.0 C 484.2 309.4 487.4 309.7 485.4 310.0 C 485.4 310.0 485.4 310.0 485.4 310.0 Z M 491.2 313.7 C 491.2 313.7 491.2 313.7 491.2 313.7 C 491.2 313.7 491.2 313.7 491.2 313.7 Z M 470.5 310.7 C 470.4 310.7 470.4 310.7 470.5 310.7 C 470.5 310.7 470.5 310.7 470.5 310.7 Z M 466.1 309.7 C 466.1 310.0 465.3 309.4 466.1 309.7 C 466.1 309.7 466.1 309.7 466.1 309.7 Z M 462.5 312.6 C 462.5 312.7 462.5 312.7 462.5 312.6 C 462.5 312.6 462.5 312.6 462.5 312.6 Z M 469.0 312.0 C 469.0 312.0 469.0 312.0 469.0 312.0 C 469.0 312.0 469.0 312.0 469.0 312.0 Z M 469.6 310.1 C 468.9 308.7 471.3 310.5 469.6 310.1 C 469.6 310.1 469.6 310.1 469.6 310.1 Z M 484.0 313.5 C 484.0 312.9 485.0 313.7 484.0 313.5 C 484.0 313.5 484.0 313.5 484.0 313.5 Z M 478.8 310.6 C 479.0 310.3 479.4 310.8 478.8 310.6 C 478.8 310.6 478.8 310.6 478.8 310.6 Z M 476.4 308.7 C 476.5 308.4 477.0 308.8 476.4 308.7 C 476.4 308.7 476.4 308.7 476.4 308.7 Z M 466.2 309.3 C 466.2 309.2 466.2 309.2 466.2 309.3 C 466.2 309.3 466.2 309.3 466.2 309.3 Z M 467.7 310.4 C 466.6 309.0 469.4 311.1 467.7 310.4 C 467.7 310.4 467.7 310.4 467.7 310.4 Z M 465.9 310.7 C 466.4 311.3 464.4 310.5 465.9 310.7 M 466.9 312.8 C 468.3 312.2 465.7 315.2 466.9 312.8 C 466.9 312.8 466.9 312.8 466.9 312.8 Z M 473.7 313.3 C 473.8 313.4 473.8 313.4 473.7 313.3 C 473.7 313.3 473.7 313.3 473.7 313.3 Z M 473.0 309.4 C 474.2 309.5 472.3 309.8 473.0 309.4 C 473.0 309.4 473.0 309.4 473.0 309.4 Z M 462.8 309.1 C 464.0 309.2 462.0 309.5 462.8 309.1 C 462.8 309.1 462.8 309.1 462.8 309.1 Z M 477.7 312.0 C 479.6 311.8 476.5 312.7 477.7 312.0 C 477.7 312.0 477.7 312.0 477.7 312.0 Z M 484.8 310.5 C 484.8 310.5 484.8 310.5 484.8 310.5 C 484.8 310.5 484.8 310.5 484.8 310.5 Z M 486.1 309.9 C 486.1 310.0 486.1 310.0 486.1 309.9 C 486.1 309.9 486.1 309.9 486.1 309.9 Z M 491.6 311.3 C 491.7 311.3 491.7 311.3 491.6 311.3 C 491.6 311.3 491.6 311.3 491.6 311.3 Z M 487.3 309.3 C 487.3 309.3 487.3 309.3 487.3 309.3 C 487.3 309.3 487.3 309.3 487.3 309.3 Z M 491.1 309.6 C 491.2 309.7 491.2 309.7 491.1 309.6 C 491.1 309.6 491.1 309.6 491.1 309.6 Z M 490.5 308.5 C 490.6 308.5 490.6 308.5 490.5 308.5 C 490.5 308.5 490.5 308.5 490.5 308.5 Z M 482.1 314.3 C 482.2 314.3 482.2 314.3 482.1 314.3 C 482.1 314.3 482.1 314.3 482.1 314.3 Z M 468.2 308.9 C 468.3 309.0 468.3 309.0 468.2 308.9 C 468.2 308.9 468.2 308.9 468.2 308.9 Z M 490.8 310.2 C 490.8 310.2 490.8 310.2 490.8 310.2 C 490.8 310.2 490.8 310.2 490.8 310.2 Z M 481.5 311.2 C 481.5 312.3 480.7 309.7 481.7 311.2 C 481.7 311.2 481.4 311.0 481.5 311.2 M 482.7 313.1 C 482.7 313.1 482.7 313.1 482.7 313.1 C 482.7 313.1 482.7 313.1 482.7 313.1 Z M 478.5 313.8 C 478.5 313.8 478.5 313.8 478.5 313.8 C 478.5 313.8 478.5 313.8 478.5 313.8 Z M 486.6 309.1 C 486.4 308.4 487.6 309.6 486.5 309.1 M 491.6 313.3 C 491.4 312.6 492.7 313.8 491.5 313.3 M 461.4 309.6 C 461.3 310.1 460.6 309.3 461.4 309.6 M 477.6 314.4 C 477.4 314.9 476.8 314.1 477.6 314.4 M 479.6 312.9 C 479.4 312.3 480.6 313.4 479.4 313.0 M 488.7 313.2 C 488.8 313.2 488.8 313.2 488.7 313.2 C 488.7 313.2 488.7 313.2 488.7 313.2 Z M 474.8 309.6 C 474.9 309.6 474.9 309.6 474.8 309.6 C 474.8 309.6 474.8 309.6 474.8 309.6 Z M 480.0 310.9 C 479.3 310.0 480.9 311.5 480.0 310.9 M 473.3 311.1 C 472.3 310.0 474.9 311.4 473.3 311.1 M 493.8 313.5 C 492.7 312.2 494.6 314.2 493.8 313.5 M 488.1 310.3 C 487.0 309.0 489.0 311.0 488.1 310.3 M 475.8 310.1 C 475.8 309.4 477.0 310.5 475.8 310.1 M 464.1 309.5 C 463.0 309.3 465.5 308.9 464.1 309.5 M 485.9 313.3 C 486.0 313.3 486.0 313.3 485.9 313.3 C 485.9 313.3 485.9 313.3 485.9 313.3 Z M 467.7 314.4 C 467.7 314.5 467.7 314.5 467.7 314.4 C 467.7 314.4 467.7 314.4 467.7 314.4 Z M 495.3 309.3 C 495.3 309.3 495.3 309.3 495.3 309.3 C 495.3 309.3 495.3 309.3 495.3 309.3 Z M 487.4 310.9 C 487.5 311.0 487.5 311.0 487.4 310.9 C 487.4 310.9 487.4 310.9 487.4 310.9 Z M 493.1 309.1 C 493.1 309.2 493.1 309.2 493.1 309.1 C 493.1 309.1 493.1 309.1 493.1 309.1 Z M 483.9 311.9 C 483.9 311.9 483.9 311.9 483.9 311.9 C 483.9 311.9 483.9 311.9 483.9 311.9 Z M 483.2 308.6 C 483.2 308.6 483.2 308.6 483.2 308.6 C 483.2 308.6 483.2 308.6 483.2 308.6 Z M 479.3 310.0 C 479.3 310.0 479.3 310.0 479.3 310.0 C 479.3 310.0 479.3 310.0 479.3 310.0 Z M 485.0 308.9 C 487.3 308.7 483.8 310.0 485.0 308.9 C 485.0 308.9 485.0 308.9 485.0 308.9 Z M 480.9 312.2 C 481.0 312.2 481.0 312.2 480.9 312.2 C 480.9 312.2 480.9 312.2 480.9 312.2 Z M 480.6 309.8 C 482.1 308.9 481.4 311.4 480.6 309.8 M 474.1 309.0 C 474.6 308.5 474.4 309.8 474.1 309.0 M 471.5 313.4 C 471.5 313.4 471.5 313.4 471.5 313.4 C 471.5 313.4 471.5 313.4 471.5 313.4 Z M 472.2 313.0 C 472.3 313.1 472.3 313.1 472.2 313.0 C 472.2 313.0 472.2 313.0 472.2 313.0 Z M 472.6 308.8 C 472.6 308.9 472.6 308.9 472.6 308.8 C 472.6 308.8 472.6 308.8 472.6 308.8 Z M 472.3 314.3 C 472.4 314.3 472.4 314.3 472.3 314.3 C 472.3 314.3 472.3 314.3 472.3 314.3 Z M 482.3 308.7 C 482.3 308.7 482.3 308.7 482.3 308.7 C 482.3 308.7 482.3 308.7 482.3 308.7 Z M 494.2 308.6 C 494.2 308.7 494.2 308.7 494.2 308.6 C 494.2 308.6 494.2 308.6 494.2 308.6 Z M 464.4 312.9 C 464.5 313.0 464.5 313.0 464.4 312.9 C 464.4 312.9 464.4 312.9 464.4 312.9 Z M 483.5 310.0 C 483.6 310.0 483.6 310.0 483.5 310.0 C 483.5 310.0 483.5 310.0 483.5 310.0 Z M 469.9 313.2 C 469.9 313.2 469.9 313.2 469.9 313.2 C 469.9 313.2 469.9 313.2 469.9 313.2 Z M 482.8 309.7 C 482.8 309.7 482.8 309.7 482.8 309.7 C 482.8 309.7 482.8 309.7 482.8 309.7 Z M 485.6 313.6 C 485.6 313.6 485.6 313.6 485.6 313.6 C 485.6 313.6 485.6 313.6 485.6 313.6 Z M 488.1 314.3 C 488.2 314.3 488.2 314.3 488.1 314.3 C 488.1 314.3 488.1 314.3 488.1 314.3 Z M 485.4 311.2 C 485.4 311.3 485.4 311.3 485.4 311.2 C 485.4 311.2 485.4 311.2 485.4 311.2 Z M 469.0 311.8 C 464.3 310.6 472.7 311.2 469.0 311.8 M 486.2 311.5 C 482.9 311.3 488.8 310.2 486.2 311.5 C 486.5 311.2 486.2 311.5 486.2 311.5 M 496.4 308.8 C 495.1 310.0 495.1 311.1 495.7 312.4 C 496.3 313.0 496.3 310.6 496.3 312.6 C 494.8 313.0 497.0 315.7 497.0 313.1 C 499.0 312.7 497.3 314.8 498.5 313.7 C 500.7 313.4 499.5 314.2 501.2 314.1 C 502.2 312.6 502.2 314.8 502.6 313.4 C 501.8 314.9 504.4 313.0 504.5 313.7 C 502.9 314.6 510.2 313.7 506.2 313.2 C 507.9 312.6 507.6 313.8 508.1 314.0 C 508.8 313.1 510.8 314.7 511.8 313.8 C 511.6 313.6 511.1 313.5 510.9 313.3 C 510.6 312.7 512.0 313.4 511.9 313.3 C 512.5 313.0 515.2 312.1 512.4 313.7 C 512.2 314.4 514.6 313.3 514.6 314.0 C 517.0 314.0 515.2 312.6 516.2 313.6 C 518.0 313.7 519.2 313.7 519.2 313.5 C 520.2 313.6 520.5 314.5 521.4 313.7 C 523.5 315.3 522.9 310.6 523.7 313.7 C 524.3 313.0 524.9 315.0 524.8 313.1 C 524.1 314.0 528.4 314.6 526.5 313.2 C 527.0 312.7 529.7 315.2 529.4 313.2 C 530.3 311.8 530.1 310.4 528.0 309.1 C 528.3 310.2 525.8 307.9 527.4 309.8 C 529.2 310.4 524.0 310.5 525.1 309.8 C 525.4 307.5 522.6 311.2 521.5 309.6 C 522.4 310.5 518.2 310.9 519.4 309.2 C 518.7 309.1 518.5 309.9 517.6 308.9 C 520.1 309.1 516.7 310.7 516.8 309.7 C 517.2 309.0 513.5 308.5 513.9 309.5 C 515.2 311.8 512.9 309.0 512.3 309.9 C 510.2 310.4 512.6 307.9 511.0 309.6 C 510.6 309.3 507.9 309.3 509.6 308.8 C 510.3 309.1 508.0 311.4 507.7 309.4 C 510.6 308.3 504.3 308.8 505.3 309.4 C 509.8 310.5 500.5 310.6 504.1 309.6 C 502.0 308.5 504.7 309.1 502.1 309.6 C 502.5 310.2 500.5 310.8 501.0 309.6 C 500.6 307.7 500.3 312.1 498.8 309.5 C 498.6 308.4 495.7 310.3 496.8 309.1 C 496.9 309.0 496.5 308.7 496.4 308.8 M 497.3 309.0 C 497.0 309.4 496.8 308.4 497.3 309.0 M 496.9 309.4 C 496.9 309.4 496.9 309.4 496.9 309.4 C 496.9 309.4 496.9 309.4 496.9 309.4 Z M 501.8 309.7 C 501.7 309.6 501.7 309.6 501.8 309.7 C 501.8 309.7 501.8 309.7 501.8 309.7 Z M 505.6 314.4 C 505.6 314.4 505.6 314.4 505.6 314.4 C 505.6 314.4 505.6 314.4 505.6 314.4 Z M 505.0 309.8 C 505.0 309.8 505.0 309.8 505.0 309.8 C 505.0 309.8 505.0 309.8 505.0 309.8 Z M 500.1 310.0 C 500.0 310.0 500.0 310.0 500.1 310.0 C 500.1 310.0 500.1 310.0 500.1 310.0 Z M 504.7 309.1 C 505.0 309.8 503.6 308.6 504.8 309.0 C 504.8 309.0 504.6 309.0 504.7 309.1 M 508.9 308.8 C 508.9 308.9 508.9 308.9 508.9 308.8 M 518.2 314.4 C 518.2 314.5 518.2 314.5 518.2 314.4 M 518.9 308.8 C 519.0 308.8 519.0 308.8 518.9 308.8 M 513.1 309.5 C 514.4 309.4 513.4 309.9 513.1 309.5 M 522.3 309.2 C 520.7 308.7 524.1 308.8 522.3 309.2 M 523.9 308.7 C 524.0 308.8 524.0 308.8 523.9 308.7 M 516.6 309.0 C 516.6 309.1 516.6 309.1 516.6 309.0 C 516.6 309.0 516.6 309.0 516.6 309.0 Z M 512.6 309.2 C 510.9 308.9 514.3 308.6 512.6 309.2 M 502.4 309.0 C 503.3 308.6 502.3 309.9 502.4 309.0 M 500.4 309.4 C 500.4 309.4 500.4 309.4 500.4 309.4 C 500.4 309.4 500.4 309.4 500.4 309.4 Z M 519.7 309.1 C 519.7 309.1 519.7 309.1 519.7 309.1 C 519.7 309.1 519.7 309.1 519.7 309.1 Z M 521.6 309.0 C 521.5 309.0 521.5 309.0 521.6 309.0 C 521.6 309.0 521.6 309.0 521.6 309.0 Z M 524.7 314.2 C 524.6 314.2 524.6 314.2 524.7 314.2 C 524.7 314.2 524.7 314.2 524.7 314.2 Z M 501.9 311.6 C 500.6 311.2 503.1 309.8 502.9 311.1 C 503.0 311.7 502.0 311.4 501.9 311.6 M 511.3 310.8 C 511.6 312.6 510.1 308.4 511.3 310.8 M 524.1 309.9 C 525.4 312.0 522.6 308.4 524.1 309.9 M 526.7 309.5 C 527.4 310.0 521.9 309.8 525.8 309.2 C 526.1 308.9 526.4 309.3 526.7 309.5 M 509.0 309.7 C 509.3 310.6 507.0 309.2 509.0 309.7 M 516.7 312.6 C 517.3 312.0 518.9 311.4 518.2 312.5 C 518.2 313.9 516.0 313.1 516.7 312.6 M 497.7 310.0 C 498.7 308.4 497.7 311.3 497.7 310.0 M 502.6 310.1 C 502.6 310.0 502.6 310.0 502.6 310.1 C 502.6 310.1 502.6 310.1 502.6 310.1 Z M 504.5 309.9 C 504.6 310.0 504.6 310.0 504.5 309.9 M 498.5 308.6 C 498.6 308.7 498.6 308.7 498.5 308.6 M 516.7 311.0 C 516.8 311.1 516.8 311.1 516.7 311.0 M 512.7 309.9 C 514.6 311.5 511.7 310.3 512.7 309.9 M 508.1 312.9 C 508.7 313.7 506.9 313.0 508.1 312.9 M 515.8 309.3 C 517.2 310.8 514.0 310.7 515.8 309.3 M 511.8 309.8 C 511.9 309.8 511.9 309.8 511.8 309.8 C 511.8 309.8 511.8 309.8 511.8 309.8 Z M 517.2 312.8 C 517.2 312.8 517.2 312.8 517.2 312.8 C 517.2 312.8 517.2 312.8 517.2 312.8 Z M 517.8 312.7 C 517.7 312.7 517.7 312.7 517.8 312.7 C 517.8 312.7 517.8 312.7 517.8 312.7 Z M 517.5 309.2 C 517.4 309.2 517.4 309.2 517.5 309.2 C 517.5 309.2 517.5 309.2 517.5 309.2 Z M 500.3 313.5 C 501.7 313.6 499.3 313.7 500.3 313.5 C 500.3 313.5 500.3 313.5 500.3 313.5 Z M 506.2 309.1 C 508.4 310.3 504.7 310.2 506.2 309.1 C 506.2 309.1 506.2 309.1 506.2 309.1 Z M 508.7 311.0 C 508.7 311.1 508.7 311.1 508.7 311.0 C 508.7 311.0 508.7 311.0 508.7 311.0 Z M 515.0 308.4 C 515.0 308.5 515.0 308.5 515.0 308.4 C 515.0 308.4 515.0 308.4 515.0 308.4 Z M 501.0 313.6 C 501.0 313.7 501.0 313.7 501.0 313.6 C 501.0 313.6 501.0 313.6 501.0 313.6 Z M 521.3 310.0 C 521.3 310.1 521.3 310.1 521.3 310.0 C 521.3 310.0 521.3 310.0 521.3 310.0 Z M 513.6 313.0 C 514.1 312.4 513.7 313.5 513.6 313.0 C 513.6 313.0 513.6 313.0 513.6 313.0 Z M 515.6 313.0 C 515.6 313.0 515.6 313.0 515.6 313.0 C 515.6 313.0 515.6 313.0 515.6 313.0 Z M 524.4 308.6 C 524.5 308.6 524.5 308.6 524.4 308.6 C 524.4 308.6 524.4 308.6 524.4 308.6 Z M 520.7 314.4 C 520.7 314.4 520.7 314.4 520.7 314.4 C 520.7 314.4 520.7 314.4 520.7 314.4 Z M 522.3 312.7 C 522.3 312.7 522.3 312.7 522.3 312.7 C 522.3 312.7 522.3 312.7 522.3 312.7 Z M 517.1 309.5 C 519.1 309.3 516.6 310.2 517.1 309.5 C 517.1 309.5 517.1 309.5 517.1 309.5 Z M 527.3 312.2 C 527.3 312.3 527.3 312.3 527.3 312.2 C 527.3 312.2 527.3 312.2 527.3 312.2 Z M 528.3 310.2 C 528.3 310.3 528.3 310.3 528.3 310.2 C 528.3 310.2 528.3 310.2 528.3 310.2 Z M 528.8 309.1 C 528.8 309.2 528.8 309.2 528.8 309.1 C 528.8 309.1 528.8 309.1 528.8 309.1 Z M 504.5 312.0 C 504.4 312.0 504.4 312.0 504.5 312.0 C 504.5 312.0 504.5 312.0 504.5 312.0 Z M 503.7 308.7 C 503.7 308.7 503.7 308.7 503.7 308.7 C 503.7 308.7 503.7 308.7 503.7 308.7 Z M 506.4 308.6 C 506.4 308.6 506.4 308.6 506.4 308.6 C 506.4 308.6 506.4 308.6 506.4 308.6 Z M 504.0 314.0 C 504.0 314.0 504.0 314.0 504.0 314.0 C 504.0 314.0 504.0 314.0 504.0 314.0 Z M 514.1 311.2 C 514.1 311.2 514.1 311.2 514.1 311.2 C 514.1 311.2 514.1 311.2 514.1 311.2 Z M 515.1 312.5 C 515.0 312.5 515.0 312.5 515.1 312.5 C 515.1 312.5 515.1 312.5 515.1 312.5 Z M 512.7 314.3 C 512.7 314.3 512.7 314.3 512.7 314.3 C 512.7 314.3 512.7 314.3 512.7 314.3 Z M 515.8 313.7 C 515.8 313.7 515.8 313.7 515.8 313.7 C 515.8 313.7 515.8 313.7 515.8 313.7 Z M 497.2 313.4 C 497.2 313.4 497.2 313.4 497.2 313.4 C 497.2 313.4 497.2 313.4 497.2 313.4 Z M 497.0 310.9 C 497.0 311.0 497.0 311.0 497.0 310.9 C 497.0 310.9 497.0 310.9 497.0 310.9 Z M 514.4 309.4 C 514.9 308.9 515.4 310.1 514.4 309.4 M 510.6 309.7 C 510.6 309.8 510.6 309.8 510.6 309.7 C 510.6 309.7 510.6 309.7 510.6 309.7 Z M 520.9 309.5 C 521.4 310.5 519.1 309.0 520.9 309.5 C 520.9 309.5 520.9 309.5 520.9 309.5 Z M 518.9 313.7 C 518.9 313.7 518.9 313.7 518.9 313.7 C 518.9 313.7 518.9 313.7 518.9 313.7 Z M 519.9 313.3 C 520.0 313.4 520.0 313.4 519.9 313.3 C 519.9 313.3 519.9 313.3 519.9 313.3 Z M 525.5 310.6 C 525.6 310.6 525.6 310.6 525.5 310.6 M 510.1 308.8 C 510.7 309.3 510.5 309.2 510.1 308.8 M 522.2 309.5 C 522.2 309.6 522.2 309.6 522.2 309.5 C 522.2 309.5 522.2 309.5 522.2 309.5 Z M 526.7 310.0 C 526.7 310.0 526.7 310.0 526.7 310.0 C 526.7 310.0 526.7 310.0 526.7 310.0 Z M 507.3 309.5 C 507.4 310.7 506.9 310.4 507.3 309.5 M 499.7 309.9 C 499.7 310.0 499.7 310.0 499.7 309.9 C 499.7 309.9 499.7 309.9 499.7 309.9 Z M 532.8 309.1 C 530.7 307.8 530.7 309.7 530.7 309.7 C 531.0 307.2 528.9 310.7 529.3 311.2 C 529.2 311.6 530.8 316.0 532.3 313.3 C 532.7 313.0 532.9 313.8 533.2 313.8 C 535.8 313.7 531.5 312.5 534.6 312.5 C 535.1 312.8 534.5 314.9 536.3 313.5 C 536.4 313.7 538.5 314.5 537.7 313.5 C 538.7 314.5 539.3 313.3 540.3 313.1 C 541.1 313.6 539.6 314.6 542.6 313.4 C 543.9 315.2 544.3 312.1 545.5 314.1 C 546.3 314.1 547.4 310.9 545.7 312.7 C 545.9 312.5 544.8 311.0 547.2 311.6 C 546.8 312.0 545.5 315.2 549.3 313.7 C 549.9 313.7 551.3 312.9 551.6 313.3 C 549.7 313.6 554.3 314.7 553.8 313.7 C 556.8 314.4 555.1 312.9 557.2 314.0 C 559.0 314.0 556.7 312.5 558.9 313.4 C 560.5 313.2 559.4 314.0 559.2 314.0 C 560.6 314.1 561.2 313.5 561.7 313.6 C 562.0 313.7 562.6 314.4 563.0 313.6 C 564.5 312.1 563.1 310.7 563.8 309.2 C 562.7 308.5 563.3 310.3 562.5 309.2 C 562.0 310.2 562.5 309.2 559.4 309.4 C 559.5 309.6 560.2 310.2 559.5 310.3 C 558.3 310.2 559.2 307.7 557.2 309.5 C 559.5 310.0 554.0 310.3 556.1 310.8 C 553.5 311.1 555.4 310.6 553.4 310.0 C 553.5 311.7 553.3 308.2 552.6 309.5 C 552.4 308.9 549.4 309.2 551.5 310.2 C 548.4 310.6 550.4 309.7 549.3 308.8 C 547.8 308.7 549.1 311.5 548.2 309.4 C 546.4 308.5 548.2 310.5 546.8 308.9 C 547.4 310.3 545.4 308.8 545.9 310.4 C 542.7 310.5 546.3 308.8 544.1 309.8 C 544.8 309.9 544.5 307.8 543.1 309.2 C 543.7 311.6 541.3 307.0 542.3 310.2 C 537.8 311.2 541.5 308.9 539.1 308.9 C 538.4 308.9 539.7 309.9 539.2 310.0 C 536.0 309.5 538.6 308.7 537.0 310.2 C 533.8 310.7 536.0 308.9 534.5 308.8 C 534.4 309.5 533.1 310.8 532.8 309.1 M 535.6 309.9 C 536.3 309.4 536.0 310.4 535.6 309.9 M 529.3 309.1 C 530.0 308.6 529.7 309.7 529.3 309.1 M 538.2 309.4 C 539.1 308.9 538.5 310.3 538.2 309.4 M 555.2 310.2 C 554.0 310.2 555.7 309.8 555.2 310.2 M 531.8 309.0 C 532.8 308.4 532.1 309.9 531.8 309.0 M 530.7 310.3 C 530.7 310.3 530.7 310.3 530.7 310.3 M 556.9 308.9 C 556.9 308.9 556.9 308.9 556.9 308.9 M 552.3 308.9 C 553.3 308.9 551.8 309.2 552.3 308.9 M 552.2 314.2 C 553.1 314.3 551.6 314.6 552.2 314.2 M 559.4 308.8 C 560.3 308.4 559.7 309.4 559.4 308.8 M 561.9 310.0 C 562.8 309.5 562.5 310.6 561.9 310.0 M 535.1 311.8 C 535.1 311.8 535.1 311.8 535.1 311.8 C 535.1 311.8 535.1 311.8 535.1 311.8 Z M 543.4 313.1 C 542.4 312.6 544.6 313.8 543.4 313.1 M 541.9 309.6 C 542.5 310.7 540.6 309.5 541.9 309.6 C 541.9 309.6 541.9 309.6 541.9 309.6 Z M 540.4 310.1 C 540.4 310.1 540.4 310.1 540.4 310.1 C 540.4 310.1 540.4 310.1 540.4 310.1 Z M 545.1 310.2 C 545.1 310.2 545.1 310.2 545.1 310.2 C 545.1 310.2 545.1 310.2 545.1 310.2 Z M 544.1 310.2 C 543.8 310.5 543.6 310.0 544.1 310.2 C 544.1 310.2 544.1 310.2 544.1 310.2 Z M 551.0 313.7 C 550.6 313.9 550.5 313.5 551.0 313.7 C 551.0 313.7 551.0 313.7 551.0 313.7 Z M 542.7 310.6 C 542.5 311.7 542.0 309.9 542.7 310.6 C 542.7 310.6 542.7 310.6 542.7 310.6 Z M 547.7 313.2 C 548.1 312.9 548.6 314.3 547.7 313.2 M 557.8 309.1 C 558.3 308.8 558.7 310.1 557.8 309.1 M 547.9 308.8 C 548.3 308.5 548.8 309.8 547.9 308.8 M 536.2 309.4 C 536.3 309.6 536.3 309.6 536.2 309.4 M 541.7 314.2 C 542.3 313.8 542.0 314.6 541.7 314.2 M 532.3 313.8 C 533.0 313.4 532.6 314.3 532.3 313.8 M 556.4 314.1 C 556.4 313.9 557.4 314.3 556.4 314.1 M 549.1 310.5 C 549.9 310.7 550.8 311.3 549.0 311.2 C 548.9 310.9 549.4 310.8 549.1 310.5 C 549.1 310.5 549.1 310.5 549.1 310.5 Z M 552.2 313.0 C 552.3 313.1 552.3 313.1 552.2 313.0 M 550.6 309.5 C 550.7 309.6 550.7 309.6 550.6 309.5 M 555.7 309.6 C 555.8 309.8 555.8 309.8 555.7 309.6 M 556.3 309.3 C 556.3 309.4 556.3 309.4 556.3 309.3 C 556.3 309.3 556.3 309.3 556.3 309.3 Z M 561.9 308.9 C 561.9 308.9 561.9 308.9 561.9 308.9 C 561.9 308.9 561.9 308.9 561.9 308.9 Z M 554.1 309.8 C 554.1 309.8 554.1 309.8 554.1 309.8 C 554.1 309.8 554.1 309.8 554.1 309.8 Z M 558.7 313.9 C 558.7 314.0 558.7 314.0 558.7 313.9 C 558.7 313.9 558.7 313.9 558.7 313.9 Z M 558.1 313.3 C 558.1 313.3 558.1 313.3 558.1 313.3 C 558.1 313.3 558.1 313.3 558.1 313.3 Z M 533.3 309.1 C 534.0 308.4 533.7 311.0 533.3 309.1 M 560.6 313.3 C 561.3 314.0 559.3 313.4 560.6 313.3 C 560.6 313.3 560.6 313.3 560.6 313.3 Z M 553.5 310.7 C 553.5 310.8 553.5 310.8 553.5 310.7 M 556.7 309.4 C 556.7 309.6 556.7 309.6 556.7 309.4 M 541.8 308.6 C 541.9 308.7 541.9 308.7 541.8 308.6 M 560.6 309.6 C 563.0 309.9 559.5 311.2 560.6 309.6 M 540.7 309.6 C 540.7 309.5 540.7 309.5 540.7 309.6 M 546.1 311.7 C 547.7 311.6 545.5 312.3 546.1 311.7 M 550.1 310.3 C 550.1 310.3 550.1 310.3 550.1 310.3 C 550.1 310.3 550.1 310.3 550.1 310.3 Z M 547.8 310.3 C 546.6 310.4 547.5 310.0 547.8 310.3 C 547.8 310.3 547.8 310.3 547.8 310.3 Z M 534.4 310.1 C 535.9 310.3 532.9 310.5 534.4 310.1 C 534.4 310.1 534.4 310.1 534.4 310.1 Z M 559.5 312.2 C 559.4 312.2 559.4 312.2 559.5 312.2 C 559.5 312.2 559.5 312.2 559.5 312.2 Z M 553.8 309.0 C 553.1 309.3 553.5 308.7 553.8 309.0 C 553.8 309.0 553.8 309.0 553.8 309.0 Z M 562.8 308.9 C 562.1 309.2 562.4 308.6 562.8 308.9 C 562.8 308.9 562.8 308.9 562.8 308.9 Z M 532.6 309.9 C 538.1 311.8 525.2 309.5 532.6 309.9 C 532.6 309.9 532.6 309.9 532.6 309.9 Z M 548.7 309.6 C 548.7 309.6 548.7 309.6 548.7 309.6 C 548.7 309.6 548.7 309.6 548.7 309.6 Z M 538.5 308.8 C 538.5 308.9 538.5 308.9 538.5 308.8 C 538.5 308.8 538.5 308.8 538.5 308.8 Z M 536.8 309.8 C 536.8 309.9 536.8 309.9 536.8 309.8 C 536.8 309.8 536.8 309.8 536.8 309.8 Z M 537.3 314.1 C 537.3 314.1 537.3 314.1 537.3 314.1 C 537.3 314.1 537.3 314.1 537.3 314.1 Z M 537.9 312.1 C 537.8 312.2 537.8 312.2 537.9 312.1 C 537.9 312.1 537.9 312.1 537.9 312.1 Z M 534.3 312.8 C 534.3 312.9 534.3 312.9 534.3 312.8 C 534.3 312.8 534.3 312.8 534.3 312.8 Z M 534.4 313.4 C 534.4 313.5 534.4 313.5 534.4 313.4 C 534.4 313.4 534.4 313.4 534.4 313.4 Z M 556.7 310.6 C 556.6 310.7 556.6 310.7 556.7 310.6 C 556.7 310.6 556.7 310.6 556.7 310.6 Z M 554.8 312.4 C 556.0 311.8 554.4 313.3 554.8 312.4 C 554.8 312.4 554.8 312.4 554.8 312.4 Z M 543.4 311.5 C 544.6 311.3 542.6 312.1 543.4 311.5 C 543.4 311.5 543.4 311.5 543.4 311.5 Z M 544.6 313.8 C 544.7 313.9 544.7 313.9 544.6 313.8 C 544.6 313.8 544.6 313.8 544.6 313.8 Z M 536.8 308.8 C 536.8 308.9 536.8 308.9 536.8 308.8 C 536.8 308.8 536.8 308.8 536.8 308.8 Z M 534.7 309.5 C 534.6 310.4 534.0 309.1 534.7 309.5 M 545.6 309.0 C 545.6 309.1 545.6 309.1 545.6 309.0 C 545.6 309.0 545.6 309.0 545.6 309.0 Z M 552.5 310.4 C 552.5 310.5 552.5 310.5 552.5 310.4 C 552.5 310.4 552.5 310.4 552.5 310.4 Z M 559.3 309.8 C 559.3 309.9 559.3 309.9 559.3 309.8 C 559.3 309.8 559.3 309.8 559.3 309.8 Z M 549.9 309.1 C 549.8 309.2 549.8 309.2 549.9 309.1 C 549.9 309.1 549.9 309.1 549.9 309.1 Z M 546.6 309.9 C 546.6 310.0 546.6 310.0 546.6 309.9 C 546.6 309.9 546.6 309.9 546.6 309.9 Z M 560.8 311.1 C 560.8 311.1 560.8 311.1 560.8 311.1 C 560.8 311.1 560.8 311.1 560.8 311.1 Z M 550.6 309.0 C 550.6 309.0 550.6 309.0 550.6 309.0 C 550.6 309.0 550.6 309.0 550.6 309.0 Z M 552.6 311.8 C 552.6 311.9 552.6 311.9 552.6 311.8 C 552.6 311.8 552.6 311.8 552.6 311.8 Z M 535.0 308.2 C 534.9 308.3 534.9 308.3 535.0 308.2 C 535.0 308.2 535.0 308.2 535.0 308.2 Z M 560.9 309.9 C 560.9 309.9 560.9 309.9 560.9 309.9 C 560.9 309.9 560.9 309.9 560.9 309.9 Z M 561.3 309.1 C 561.3 309.1 561.3 309.1 561.3 309.1 C 561.3 309.1 561.3 309.1 561.3 309.1 Z M 556.5 313.4 C 554.1 312.8 558.6 313.2 556.9 312.2 C 560.4 311.9 557.0 313.4 556.5 313.4 C 556.5 313.4 556.5 313.4 556.5 313.4 Z M 556.5 313.4 " fill="#EB5C56"></path><path d="M 572.2 324.8 C 572.1 325.3 570.5 325.8 571.6 324.8 C 571.6 324.7 572.2 324.5 572.2 324.8 Z M 574.6 323.3 C 574.4 323.5 574.2 323.5 574.0 323.5 C 573.5 323.2 575.2 323.0 574.6 323.3 Z M 570.8 324.9 C 570.7 325.0 570.0 325.5 570.0 325.3 C 570.1 325.1 570.8 324.9 570.8 324.9 Z M 576.2 321.1 C 576.3 321.4 575.5 321.8 575.3 321.8 C 574.7 321.8 576.0 320.7 576.2 321.1 Z M 569.6 317.1 C 569.6 317.0 569.6 316.9 569.6 316.9 C 569.6 316.9 569.6 317.0 569.6 317.1 Z M 587.6 315.0 C 587.5 315.1 587.1 315.1 587.1 314.9 C 587.0 314.6 588.1 314.6 587.6 315.0 Z M 569.2 301.3 C 569.2 301.3 569.0 301.7 568.9 301.5 C 568.7 301.3 569.0 301.2 569.2 301.3 Z M 568.9 301.3 C 568.7 301.4 568.6 301.0 568.8 301.1 C 569.0 301.2 569.1 301.2 568.9 301.3 Z M 581.7 304.6 C 581.8 304.7 581.9 304.7 581.7 304.7 C 581.6 304.8 581.5 304.6 581.7 304.6 Z M 581.2 304.7 C 580.9 304.8 580.9 304.4 581.1 304.5 C 581.3 304.5 581.4 304.6 581.2 304.7 Z M 579.4 302.2 C 579.5 302.3 579.6 302.3 579.5 302.3 C 579.4 302.4 579.2 302.1 579.4 302.2 Z M 568.5 307.8 C 568.4 307.7 568.5 307.2 568.7 307.2 C 569.0 307.3 568.7 308.0 568.5 307.8 Z M 568.4 307.2 C 568.2 307.2 568.1 306.9 568.3 306.9 C 568.5 307.0 568.5 307.1 568.4 307.2 Z M 568.7 309.1 C 569.0 309.1 569.0 309.7 569.0 309.8 C 568.9 310.0 568.8 310.2 568.7 310.4 C 568.7 310.5 568.4 309.1 568.7 309.1 Z M 569.0 313.4 C 568.9 313.4 568.9 313.3 569.0 313.1 C 569.0 313.0 569.1 313.4 569.0 313.4 Z M 568.9 311.0 C 568.8 311.0 568.7 310.9 568.8 310.7 C 568.9 310.6 569.0 311.0 568.9 311.0 Z M 581.0 319.0 C 581.1 319.0 580.5 319.3 580.4 319.3 C 580.3 319.3 580.6 319.1 580.4 319.2 C 580.2 319.2 580.3 318.5 581.0 319.0 Z M 575.9 322.5 C 575.7 322.5 575.7 322.5 575.6 322.3 C 575.6 322.3 576.2 322.2 575.9 322.5 Z M 579.8 318.7 C 579.8 318.8 579.7 318.8 579.6 318.8 C 579.6 318.7 579.7 318.6 579.8 318.7 Z M 580.1 318.4 C 580.0 318.5 579.6 318.4 579.6 318.2 C 579.5 318.0 580.5 318.0 580.1 318.4 Z M 581.8 318.7 C 581.7 318.8 581.7 318.8 581.7 318.7 C 581.8 318.6 581.8 318.7 581.8 318.7 Z M 578.9 320.9 C 578.7 321.0 578.7 321.0 578.8 320.8 C 578.9 320.7 578.9 320.9 578.9 320.9 Z M 583.1 317.5 C 583.1 317.5 582.8 318.0 582.5 317.7 C 582.1 317.3 583.0 317.5 583.1 317.5 Z M 584.9 315.8 C 584.8 315.8 584.8 315.7 584.9 315.6 C 585.1 315.6 585.1 315.7 584.9 315.8 Z M 585.3 314.6 C 585.6 314.5 585.9 314.6 585.5 314.8 C 585.1 314.9 585.0 314.6 585.3 314.6 Z M 585.0 315.0 C 585.0 314.9 585.1 314.8 585.1 314.9 C 585.2 315.0 585.0 315.0 585.0 315.0 Z M 583.5 316.6 C 583.4 316.8 583.0 316.7 583.3 316.5 C 583.5 316.3 583.6 316.4 583.5 316.6 Z M 568.5 319.3 C 568.6 319.4 568.3 319.4 568.3 319.3 C 568.2 319.2 568.5 319.1 568.5 319.3 Z M 569.5 310.1 C 569.3 310.3 569.3 310.2 569.4 309.9 C 569.5 309.7 569.6 310.0 569.5 310.1 Z M 570.0 304.4 C 569.8 304.5 569.8 304.4 569.9 304.2 C 569.9 303.9 570.1 304.3 570.0 304.4 Z M 569.5 312.5 C 569.4 312.5 569.0 311.9 569.4 311.6 C 569.8 311.3 569.8 312.3 569.5 312.5 Z M 574.1 318.1 C 574.2 318.3 574.0 318.2 574.0 318.2 C 574.0 318.0 574.0 318.0 574.1 318.1 Z M 570.2 311.2 C 570.2 311.3 570.0 311.3 569.9 311.2 C 569.8 311.1 570.1 311.0 570.2 311.2 Z M 569.6 305.4 C 569.5 305.6 569.1 305.5 569.0 305.4 C 568.6 304.9 569.1 304.5 569.3 304.2 C 569.5 304.0 569.7 305.3 569.6 305.4 Z M 569.4 320.7 C 569.5 320.5 569.5 320.4 569.5 320.3 C 569.4 320.2 569.4 320.1 569.5 320.0 C 569.5 319.5 568.9 319.1 568.8 318.8 C 568.5 317.9 569.6 317.6 569.6 317.1 C 569.6 317.2 569.6 317.3 569.7 317.4 C 570.1 317.6 569.9 315.6 569.9 315.5 C 569.6 313.8 569.3 315.8 568.8 315.8 C 568.5 315.9 569.2 314.7 569.2 314.6 C 569.4 314.1 568.9 314.0 569.1 313.5 C 569.2 313.3 570.5 312.6 570.3 312.4 C 570.2 312.3 570.3 311.7 570.3 311.5 C 570.3 311.2 570.3 310.7 569.8 311.0 C 569.5 311.2 569.1 311.3 569.5 310.8 C 569.7 310.5 570.5 308.5 569.5 308.6 C 569.5 308.6 569.2 309.0 569.2 309.1 C 568.9 308.5 569.3 306.8 568.9 306.4 C 568.0 305.5 569.4 306.7 569.7 306.2 C 570.1 305.4 570.4 305.0 570.2 304.0 C 570.2 303.8 570.1 302.9 569.6 303.3 C 569.3 303.6 569.0 303.4 568.9 303.9 C 568.4 303.3 569.4 302.9 569.2 302.8 C 568.9 302.6 568.7 302.9 568.8 302.5 C 568.9 301.9 568.7 302.1 569.2 302.0 C 569.4 302.0 569.5 301.5 569.5 301.5 C 569.5 301.5 569.6 301.5 569.6 301.5 C 569.6 301.0 568.6 300.3 568.9 300.2 C 569.0 300.1 569.6 300.3 569.8 300.3 C 569.8 300.3 569.9 300.2 569.9 300.2 C 569.8 300.0 569.4 299.5 569.5 299.5 C 569.6 299.4 570.5 299.7 570.2 299.5 C 570.0 299.3 570.3 298.3 570.5 298.2 C 570.8 298.2 572.0 297.9 572.0 297.7 C 572.1 297.5 572.6 297.9 572.8 298.0 C 573.0 298.0 573.1 298.5 573.2 298.6 C 573.2 298.7 573.7 298.9 573.7 298.9 C 573.7 298.9 573.9 298.9 574.2 299.0 C 574.6 299.2 574.7 299.6 575.1 300.0 C 575.4 300.3 575.7 300.2 576.2 300.4 C 576.6 300.5 576.6 301.4 576.8 301.7 C 577.1 302.0 577.4 301.4 577.9 301.7 C 578.3 301.9 578.5 302.1 578.3 302.1 C 578.1 302.1 578.2 302.3 578.3 302.4 C 578.4 302.5 578.8 303.0 579.1 303.0 C 579.3 303.0 578.3 301.8 579.9 302.8 C 580.6 303.3 580.9 304.2 580.7 304.1 C 580.1 303.8 580.8 305.3 581.0 305.0 C 581.2 304.8 582.5 305.7 582.4 305.0 C 582.4 304.8 583.9 305.5 584.0 305.7 C 584.1 305.9 584.9 306.1 584.8 306.7 C 584.7 306.9 585.9 306.8 586.0 306.9 C 586.2 307.1 587.2 307.8 587.4 308.0 C 587.6 308.3 587.0 308.0 586.8 307.8 C 586.6 307.7 586.3 307.2 586.1 307.2 C 585.9 307.1 586.2 307.6 586.5 307.8 C 586.7 307.9 586.6 308.2 586.8 308.4 C 587.0 308.4 587.1 308.6 587.3 308.7 C 587.4 308.8 587.5 308.8 587.6 308.7 C 587.7 308.6 587.6 308.4 587.6 308.3 C 587.7 308.3 588.0 308.3 588.3 308.5 C 588.6 308.7 588.9 308.9 589.2 309.3 C 589.6 309.7 589.8 309.6 590.1 309.8 C 590.4 309.9 590.7 310.1 590.6 310.2 C 590.6 310.3 590.2 310.2 590.1 310.2 C 590.0 310.3 590.3 310.8 590.4 310.9 C 591.2 311.5 590.1 311.8 590.9 312.4 C 591.3 312.7 590.7 312.6 590.2 312.8 C 590.3 312.9 590.3 312.9 590.0 313.2 C 590.1 313.3 589.5 313.5 589.2 313.7 C 589.1 313.8 588.2 314.6 588.6 314.0 C 588.7 313.9 588.7 313.9 588.7 313.8 C 588.7 313.8 588.7 313.8 588.7 313.8 C 588.7 313.8 588.7 313.2 588.7 313.2 C 588.7 313.2 588.7 313.8 588.7 313.8 C 588.5 313.7 588.3 313.6 588.1 313.6 C 588.1 313.7 588.1 313.7 588.1 313.8 C 588.0 313.8 588.0 313.8 588.0 313.9 C 588.0 313.9 588.0 313.9 588.0 313.9 C 588.2 314.0 588.1 314.0 587.9 314.1 C 587.7 314.5 586.7 314.7 586.2 314.8 C 586.7 313.4 585.1 314.4 584.6 314.8 C 584.1 315.2 584.8 316.3 585.1 316.1 C 584.7 316.4 584.5 316.3 584.2 316.0 C 584.2 316.0 583.4 315.7 583.5 315.6 C 582.3 315.8 583.1 316.6 582.9 316.8 C 582.7 317.1 582.4 317.3 582.2 317.5 C 582.0 317.7 582.3 317.8 582.3 318.0 C 582.2 318.6 581.1 318.2 580.8 318.3 C 581.0 318.1 581.2 317.8 581.3 317.6 C 581.1 318.0 580.7 317.5 580.5 317.6 C 580.2 317.6 579.8 317.9 579.5 318.1 C 579.0 318.5 578.6 318.9 578.1 319.2 C 578.3 319.2 579.5 319.4 579.5 319.3 C 579.3 319.4 578.8 319.6 579.2 319.9 C 579.9 320.3 578.4 320.8 578.2 320.9 C 577.5 321.2 577.1 322.3 576.0 321.9 C 576.0 321.9 577.0 321.2 576.8 321.1 C 576.3 320.6 575.8 320.5 575.2 321.1 C 575.1 321.2 574.4 322.2 574.4 322.2 C 574.4 322.1 576.2 322.9 575.1 323.0 C 574.8 323.0 575.1 322.5 574.8 322.6 C 574.4 322.6 574.0 323.0 573.7 323.1 C 573.6 323.2 573.0 323.3 573.0 323.4 C 572.9 323.6 573.1 323.9 573.0 324.1 C 572.8 324.3 572.5 324.3 572.4 324.1 C 572.4 324.1 572.3 324.0 572.3 324.0 C 572.3 324.0 572.2 324.0 572.1 323.9 C 572.1 324.0 571.9 324.1 571.7 324.0 C 571.6 324.0 571.9 323.8 572.1 323.8 C 572.0 323.7 572.0 323.6 572.0 323.5 C 571.7 323.7 571.5 324.0 571.5 324.0 C 571.2 324.6 571.3 324.8 570.3 324.6 C 569.5 324.5 569.0 322.6 569.3 321.5 C 569.2 321.3 569.2 321.0 569.4 320.7 Z M 587.7 309.3 C 587.7 309.3 587.6 309.3 587.6 309.3 C 587.6 309.4 587.5 309.5 587.4 309.6 C 587.6 309.8 587.5 309.4 587.7 309.6 C 587.9 309.8 588.0 309.6 587.7 309.3 Z M 587.5 311.9 C 587.7 312.0 587.7 311.9 587.6 311.8 C 587.5 311.8 587.5 311.9 587.5 311.9 Z M 588.0 313.0 C 588.3 312.7 587.5 312.6 587.1 313.1 C 587.6 313.1 587.9 313.1 588.0 313.0 Z M 587.5 313.9 C 587.5 313.9 587.5 313.8 587.5 313.7 C 587.4 313.6 587.2 313.9 587.2 313.8 C 587.1 313.7 587.4 313.3 587.1 313.4 C 587.0 313.4 587.0 313.4 586.9 313.4 C 586.9 313.4 586.8 313.5 586.8 313.5 C 586.8 313.8 587.3 314.0 587.5 313.9 Z M 585.8 309.2 C 586.0 309.2 585.9 309.1 585.8 309.1 C 585.6 309.0 585.6 309.2 585.8 309.2 Z M 584.4 307.2 C 584.5 307.4 584.7 307.4 584.7 307.2 C 584.6 307.0 584.3 307.0 584.4 307.2 Z M 581.6 310.2 C 581.7 310.1 581.6 310.1 581.5 310.1 C 581.4 310.0 581.5 310.2 581.6 310.2 Z M 581.5 312.3 C 581.4 312.4 581.6 312.6 581.6 312.5 C 581.7 312.4 581.6 312.2 581.5 312.3 Z M 581.7 307.4 C 581.6 307.4 581.6 307.6 581.8 307.5 C 581.9 307.5 581.9 307.5 581.7 307.4 Z M 582.2 310.3 C 582.0 310.1 582.0 310.1 581.9 310.2 C 581.8 310.3 581.9 310.4 582.1 310.5 C 582.3 310.6 582.3 310.5 582.2 310.3 Z M 582.3 312.1 C 581.8 312.4 581.9 312.6 582.5 312.2 C 583.1 311.7 582.7 311.9 582.3 312.1 Z M 583.3 305.7 C 583.4 305.8 583.7 305.9 583.7 305.9 C 583.7 305.9 583.1 305.3 583.3 305.7 Z M 582.2 316.9 C 582.4 316.9 582.4 316.6 582.1 316.7 C 581.8 316.8 582.0 317.0 582.2 316.9 Z M 581.1 316.1 C 581.5 316.4 581.9 316.3 581.9 316.3 C 581.9 316.3 581.8 315.9 581.9 315.8 C 582.2 315.4 582.8 315.6 583.0 315.1 C 583.2 314.6 582.4 315.0 582.3 315.2 C 582.3 315.1 582.4 315.0 582.3 314.8 C 582.2 314.7 582.1 314.8 582.0 314.9 C 581.9 315.2 580.6 315.7 581.1 316.1 Z M 581.1 311.0 C 581.4 311.1 581.6 310.9 581.4 310.7 C 581.3 310.5 581.1 310.3 581.0 310.4 C 580.9 310.5 580.9 310.9 581.1 311.0 Z M 581.0 309.4 C 581.2 309.3 581.1 309.2 580.9 309.2 C 580.6 309.0 580.7 309.5 581.0 309.4 Z M 578.0 302.6 C 577.8 302.7 578.2 302.9 578.2 302.8 C 578.2 302.6 578.2 302.6 578.0 302.6 Z M 578.1 305.3 C 577.7 305.2 578.0 305.6 578.1 305.6 C 578.2 305.6 578.4 305.3 578.1 305.3 Z M 579.7 306.9 C 579.5 306.8 579.7 307.1 579.8 307.0 C 579.9 307.0 579.8 306.9 579.7 306.9 Z M 579.9 307.9 C 579.7 307.8 579.7 308.1 580.0 308.1 C 580.1 308.1 580.0 308.0 579.9 307.9 Z M 579.1 316.5 C 579.1 316.5 578.9 316.1 578.8 316.5 C 578.6 316.8 578.6 316.8 579.1 316.5 Z M 579.8 313.4 C 580.1 313.2 580.3 313.0 580.0 312.2 C 579.7 311.3 579.5 311.6 579.4 312.2 C 579.3 312.7 578.9 311.3 578.7 312.3 C 578.6 312.7 579.5 313.6 579.8 313.4 Z M 578.3 308.0 C 578.6 308.5 579.3 308.4 578.9 308.0 C 578.4 307.7 578.0 307.5 578.3 308.0 Z M 578.2 307.6 C 578.4 307.6 578.3 307.5 578.2 307.5 C 578.0 307.4 578.1 307.6 578.2 307.6 Z M 578.7 320.3 C 579.5 319.5 578.1 319.6 578.1 319.6 C 577.0 319.9 577.9 321.0 578.7 320.3 Z M 570.1 302.0 C 570.0 302.0 570.0 302.1 570.0 302.1 C 570.0 302.1 570.0 302.1 570.1 302.1 C 570.2 302.3 570.4 301.9 570.4 301.9 C 570.3 301.9 570.1 301.9 570.1 302.0 Z M 569.8 307.5 C 569.8 307.3 569.8 307.1 569.6 306.9 C 569.2 307.0 569.2 308.7 570.0 308.1 C 570.1 308.0 570.9 306.9 570.4 306.8 C 570.2 306.7 569.8 308.0 569.8 307.5 Z M 570.5 305.8 C 570.4 306.4 571.1 305.2 570.8 305.4 C 570.6 305.4 570.5 305.6 570.5 305.8 Z M 572.0 300.9 C 571.7 300.0 570.4 300.2 571.0 301.5 C 571.7 302.9 572.3 303.0 572.1 302.3 C 571.9 301.6 572.5 302.2 572.0 300.9 Z M 572.0 308.0 C 571.1 307.9 571.3 308.3 572.0 308.5 C 572.2 308.6 572.6 308.1 572.0 308.0 Z M 572.2 310.0 C 572.1 310.3 572.1 310.3 572.2 310.1 C 572.4 309.9 572.2 309.8 572.2 310.0 Z M 573.3 299.5 C 573.2 299.1 572.8 298.9 573.0 298.9 C 573.3 298.9 573.1 298.8 573.0 298.6 C 572.8 298.4 572.8 298.8 572.8 299.0 C 572.8 299.2 573.5 299.8 573.3 299.5 Z M 576.5 307.1 C 576.3 307.0 576.4 307.2 576.6 307.3 C 576.7 307.3 576.7 307.2 576.5 307.1 Z M 577.5 314.7 C 577.5 314.7 577.4 314.5 577.3 314.6 C 577.2 314.8 577.2 314.8 577.5 314.7 Z M 577.2 320.7 C 577.3 320.6 576.9 320.6 577.0 320.2 C 577.0 320.1 577.2 320.3 577.2 320.3 C 577.2 320.3 577.1 319.5 576.8 320.0 C 576.6 320.2 576.8 321.1 577.2 320.7 Z M 576.3 309.2 C 576.6 309.5 576.8 308.3 577.0 308.5 C 577.3 308.7 577.3 308.5 577.0 308.3 C 576.7 308.0 576.0 308.9 576.3 309.2 Z M 576.1 306.0 C 576.1 306.2 576.7 306.7 576.6 306.4 C 576.4 306.1 576.1 305.8 576.3 305.8 C 576.5 305.8 576.4 305.8 576.2 305.6 C 576.0 305.3 576.0 305.8 576.1 306.0 Z M 575.8 300.6 C 575.9 300.7 576.3 300.9 576.1 300.6 C 576.1 300.5 575.8 300.5 575.8 300.6 Z M 575.5 315.6 C 575.6 315.3 575.5 315.2 575.3 315.5 C 575.0 315.7 575.4 315.8 575.5 315.6 Z M 574.9 301.1 C 575.2 301.4 575.0 300.9 575.2 301.1 C 575.5 301.3 575.5 301.2 575.2 300.9 C 575.0 300.6 574.6 300.8 574.9 301.1 Z M 574.7 320.5 C 574.7 320.3 574.6 320.1 574.5 320.2 C 574.4 320.4 574.6 320.6 574.7 320.5 Z M 573.9 318.4 C 574.0 318.4 574.1 318.4 574.2 318.4 C 575.4 317.4 573.1 318.1 573.9 318.4 Z M 574.1 315.4 C 574.2 315.8 574.4 315.3 574.4 315.2 C 574.2 315.2 574.1 315.2 574.1 315.4 Z M 574.1 312.0 C 573.9 311.9 573.9 312.2 574.1 312.2 C 574.3 312.1 574.2 312.0 574.1 312.0 Z M 573.5 322.9 C 573.6 322.9 573.6 322.7 573.4 322.8 C 573.3 322.8 573.3 323.0 573.5 322.9 Z M 573.3 314.5 C 573.4 314.5 573.4 314.5 573.4 314.3 C 573.3 314.2 573.2 314.4 573.3 314.5 Z M 573.3 304.1 C 573.4 304.2 573.4 304.3 573.5 304.4 C 573.7 304.3 573.8 303.6 574.0 303.6 C 574.0 303.6 574.0 303.6 574.0 303.6 C 574.0 303.6 574.1 303.6 574.1 303.6 C 574.2 303.7 574.3 303.7 574.2 303.8 C 574.2 303.9 574.3 304.0 574.3 304.1 C 574.5 303.9 574.6 303.7 574.5 303.5 C 574.3 303.3 573.8 303.2 573.5 303.3 C 573.4 303.4 573.3 303.6 573.3 303.7 C 573.3 303.7 573.3 303.7 573.3 303.7 C 573.6 303.8 573.7 304.0 573.5 304.0 C 573.4 304.0 573.3 303.9 573.3 303.9 C 573.2 304.0 573.2 304.0 573.3 304.1 Z M 572.8 313.2 C 573.0 313.4 573.1 313.2 573.2 312.9 C 573.2 312.7 572.7 312.9 572.8 313.2 Z M 573.1 322.5 C 573.1 322.4 573.0 322.3 573.0 322.3 C 573.0 322.3 573.0 322.4 572.9 322.4 C 572.9 322.6 572.9 322.8 572.8 323.0 C 573.0 323.0 573.2 322.9 573.1 322.5 Z M 572.1 319.6 C 572.2 319.7 572.1 320.9 572.4 320.7 C 572.8 320.3 573.3 320.9 573.1 320.0 C 573.0 319.5 572.4 319.2 572.3 318.7 C 571.7 316.6 571.7 319.3 571.5 319.9 C 571.5 320.0 572.1 319.4 572.1 319.6 Z M 571.5 316.7 C 571.3 316.6 571.0 316.9 571.1 317.1 C 571.1 317.6 571.7 316.8 571.5 316.7 Z M 571.2 322.8 C 571.2 322.8 571.2 322.8 571.3 322.8 C 571.3 322.8 571.2 322.7 571.1 322.7 C 571.1 322.7 571.1 322.8 571.2 322.8 Z M 570.9 324.3 C 571.6 323.8 570.4 323.8 570.1 324.0 C 569.7 324.1 570.6 324.6 570.9 324.3 Z M 570.5 318.3 C 570.5 317.9 569.2 317.4 569.3 318.2 C 569.3 318.9 570.4 319.3 570.5 318.3 Z M 568.8 313.8 C 569.0 313.9 568.7 314.4 568.6 314.2 C 568.5 314.0 568.8 313.7 568.8 313.8 Z M 568.1 320.6 C 568.2 320.4 568.3 320.6 568.3 320.6 C 568.1 320.7 568.1 320.7 568.1 320.6 Z M 569.1 319.9 C 569.0 320.1 568.9 320.4 568.8 320.6 C 568.8 320.7 568.7 320.3 568.7 320.2 C 568.7 320.1 569.0 320.0 569.1 319.9 Z M 569.2 316.3 C 569.0 316.5 569.0 316.2 569.0 316.1 C 569.1 315.9 569.3 316.2 569.2 316.3 Z M 568.9 317.2 C 568.9 317.0 569.1 317.1 569.0 317.3 C 569.0 317.5 568.8 317.3 568.9 317.2 Z M 569.6 315.7 C 569.7 316.0 569.8 316.6 569.5 316.5 C 569.3 316.5 569.4 314.9 569.6 315.7 Z M 569.6 315.7 " fill="#EB5C56"></path></g></svg>