<?xml version="1.0" encoding="UTF-8" standalone="no"?><svg xmlns="http://www.w3.org/2000/svg" xmlns:xlink="http://www.w3.org/1999/xlink" clip-rule="evenodd" stroke-miterlimit="10" viewBox="0 0 1024 768"><desc>SVG generated by Keynote</desc><defs></defs><g transform="matrix(1.00, 0.00, -0.00, -1.00, 0.0, 768.0)"><g><clipPath id="clip0x7fa0763e0d30"><path d="M 0.0 768.0 L 1024.0 768.0 L 1024.0 0.0 L 0.0 0.0 Z M 0.0 768.0 "></path></clipPath><g clip-path="url(#clip0x7fa0763e0d30)"><image xlink:href="../../BE03AB4A-F5E0-4685-80C7-20DCBC62631F/assets/574DCE55A4CF432400CBDDDE1DFDFC9B.jpeg" width="2048.00" height="1536.00" transform="matrix(0.50, 0.00, -0.00, -0.50, 0.0, 768.0)"></image></g></g><text xml:space="preserve" font-family="GillSans-Light,Gill Sans" font-size="72.0" fill="#525252" transform="matrix(1.00, 0.00, -0.00, -1.00, 188.2, 628.2)">R</text><text xml:space="preserve" font-family="GillSans-Light,Gill Sans" font-size="72.0" fill="#525252" transform="matrix(1.00, 0.00, -0.00, -1.00, 229.5, 628.2)">A</text><text xml:space="preserve" font-family="GillSans-Light,Gill Sans" font-size="72.0" fill="#525252" transform="matrix(1.00, 0.00, -0.00, -1.00, 277.5, 628.2)">M</text><text xml:space="preserve" font-family="GillSans-Light,Gill Sans" font-size="72.0" fill="#525252" transform="matrix(1.00, 0.00, -0.00, -1.00, 333.7, 628.2)">O</text><text xml:space="preserve" font-family="GillSans-Light,Gill Sans" font-size="72.0" fill="#525252" transform="matrix(1.00, 0.00, -0.00, -1.00, 393.0, 628.2)">N</text><text xml:space="preserve" font-family="GillSans-Light,Gill Sans" font-size="72.0" fill="#525252" transform="matrix(1.00, 0.00, -0.00, -1.00, 448.5, 628.2)"> </text><text xml:space="preserve" font-family="GillSans-Light,Gill Sans" font-size="72.0" fill="#525252" transform="matrix(1.00, 0.00, -0.00, -1.00, 468.5, 628.2)">H</text><text xml:space="preserve" font-family="GillSans-Light,Gill Sans" font-size="72.0" fill="#525252" transform="matrix(1.00, 0.00, -0.00, -1.00, 520.3, 628.2)">U</text><text xml:space="preserve" font-family="GillSans-Light,Gill Sans" font-size="72.0" fill="#525252" transform="matrix(1.00, 0.00, -0.00, -1.00, 570.6, 628.2)">I</text><text xml:space="preserve" font-family="GillSans-Light,Gill Sans" font-size="72.0" fill="#525252" transform="matrix(1.00, 0.00, -0.00, -1.00, 585.6, 628.2)">D</text><text xml:space="preserve" font-family="GillSans-Light,Gill Sans" font-size="72.0" fill="#525252" transform="matrix(1.00, 0.00, -0.00, -1.00, 638.9, 628.2)">O</text><text xml:space="preserve" font-family="GillSans-Light,Gill Sans" font-size="72.0" fill="#525252" transform="matrix(1.00, 0.00, -0.00, -1.00, 698.2, 628.2)">B</text><text xml:space="preserve" font-family="GillSans-Light,Gill Sans" font-size="72.0" fill="#525252" transform="matrix(1.00, 0.00, -0.00, -1.00, 736.4, 628.2)">R</text><text xml:space="preserve" font-family="GillSans-Light,Gill Sans" font-size="72.0" fill="#525252" transform="matrix(1.00, 0.00, -0.00, -1.00, 776.6, 628.2)">O</text><image xlink:href="../../C2D7FFDC-C79D-46FB-897B-0BB4072CA0AC/assets/A1060486A7534C4A34D65C62B02BA6CF.png" width="1268.00" height="1264.00" transform="matrix(0.32, 0.00, -0.00, -0.32, 311.0, 505.0)"></image><text xml:space="preserve" font-family="GillSans-Light,Gill Sans" font-size="48.0" fill="#525252" transform="matrix(1.00, 0.00, -0.00, -1.00, 189.8, 558.4)">@</text><text xml:space="preserve" font-family="GillSans-Light,Gill Sans" font-size="48.0" fill="#525252" transform="matrix(1.00, 0.00, -0.00, -1.00, 228.2, 558.4)">S</text><text xml:space="preserve" font-family="GillSans-Light,Gill Sans" font-size="48.0" fill="#525252" transform="matrix(1.00, 0.00, -0.00, -1.00, 250.8, 558.4)">E</text><text xml:space="preserve" font-family="GillSans-Light,Gill Sans" font-size="48.0" fill="#525252" transform="matrix(1.00, 0.00, -0.00, -1.00, 274.3, 558.4)">N</text><text xml:space="preserve" font-family="GillSans-Light,Gill Sans" font-size="48.0" fill="#525252" transform="matrix(1.00, 0.00, -0.00, -1.00, 311.3, 558.4)">O</text><text xml:space="preserve" font-family="GillSans-Light,Gill Sans" font-size="48.0" fill="#525252" transform="matrix(1.00, 0.00, -0.00, -1.00, 350.8, 558.4)">R</text><text xml:space="preserve" font-family="GillSans-Light,Gill Sans" font-size="48.0" fill="#525252" transform="matrix(1.00, 0.00, -0.00, -1.00, 378.4, 558.4)">H</text><text xml:space="preserve" font-family="GillSans-Light,Gill Sans" font-size="48.0" fill="#525252" transform="matrix(1.00, 0.00, -0.00, -1.00, 412.9, 558.4)">U</text><text xml:space="preserve" font-family="GillSans-Light,Gill Sans" font-size="48.0" fill="#525252" transform="matrix(1.00, 0.00, -0.00, -1.00, 446.4, 558.4)">I</text><text xml:space="preserve" font-family="GillSans-Light,Gill Sans" font-size="48.0" fill="#525252" transform="matrix(1.00, 0.00, -0.00, -1.00, 456.4, 558.4)">D</text><text xml:space="preserve" font-family="GillSans-Light,Gill Sans" font-size="48.0" fill="#525252" transform="matrix(1.00, 0.00, -0.00, -1.00, 491.9, 558.4)">O</text><text xml:space="preserve" font-family="GillSans-Light,Gill Sans" font-size="48.0" fill="#525252" transform="matrix(1.00, 0.00, -0.00, -1.00, 531.5, 558.4)">B</text><text xml:space="preserve" font-family="GillSans-Light,Gill Sans" font-size="48.0" fill="#525252" transform="matrix(1.00, 0.00, -0.00, -1.00, 556.9, 558.4)">R</text><text xml:space="preserve" font-family="GillSans-Light,Gill Sans" font-size="48.0" fill="#525252" transform="matrix(1.00, 0.00, -0.00, -1.00, 583.7, 558.4)">O</text><image xlink:href="../../7EB85035-8B7F-4D2A-A18A-757D1457FF9B/assets/E3AB97D4C8CE65C8DB1C0AB5B3E124C5.png" width="2272.00" height="1704.00" transform="matrix(0.05, 0.00, -0.00, -0.05, 634.0, 621.0)"></image><image xlink:href="../../2B15C3BE-E863-4D41-8B8C-054C00F81474/assets/119A3F8D781962BC7C2B5D6BB2A8054D.png" width="995.00" height="996.00" transform="matrix(0.05, 0.00, -0.00, -0.05, 726.0, 604.0)"></image></g></svg>